<?xml version="1.0" encoding="UTF-8" standalone="no"?>
<svg
   width="559"
   zoomAndPan="magnify"
   viewBox="0 0 419.25 297.74999"
   height="397"
   preserveAspectRatio="xMidYMid"
   version="1.0"
   id="svg121"
   xmlns="http://www.w3.org/2000/svg"
   xmlns:svg="http://www.w3.org/2000/svg">
  <defs
     id="defs6">
    <clipPath
       id="7fda14f0c1">
      <path
         d="M 19,83.296875 H 42.941406 V 107 H 19 Z m 0,0"
         clip-rule="nonzero"
         id="path1" />
    </clipPath>
    <clipPath
       id="d7bd831049">
      <path
         d="M 97.0625,83.296875 H 121 V 107 H 97.0625 Z m 0,0"
         clip-rule="nonzero"
         id="path2" />
    </clipPath>
    <clipPath
       id="431ce67211">
      <path
         d="m 167.75781,55.472656 h 23.94141 v 23.941406 h -23.94141 z m 0,0"
         clip-rule="nonzero"
         id="path3" />
    </clipPath>
    <clipPath
       id="2017044023">
      <path
         d="m 162.13281,117.69531 h 34.86328 v 13.375 h -34.86328 z m 0,0"
         clip-rule="nonzero"
         id="path4" />
    </clipPath>
    <clipPath
       id="83856316b5">
      <path
         d="m 0.132812,0.695312 h 34.863282 v 13.375 H 0.132812 Z m 0,0"
         clip-rule="nonzero"
         id="path5" />
    </clipPath>
    <clipPath
       id="d3ef07db29">
      <rect
         x="0"
         width="35"
         y="0"
         height="15"
         id="rect5" />
    </clipPath>
    <clipPath
       id="02f576a3b6">
      <path
         d="m 238.65625,82.753906 h 23.94141 v 23.941404 h -23.94141 z m 0,0"
         clip-rule="nonzero"
         id="path6" />
    </clipPath>
    <clipPath
       id="7e37f75cf4">
      <rect
         x="0"
         width="361"
         y="0"
         height="190"
         id="rect6" />
    </clipPath>
  </defs>
  <g
     transform="translate(29.127192,56.081766)"
     id="g121">
    <g
       clip-path="url(#7e37f75cf4)"
       id="g120">
      <g
         clip-path="url(#7fda14f0c1)"
         id="g7">
        <path
           fill="#d9d9d9"
           d="m 42.613281,95.105469 c 0,0.773437 -0.07422,1.542969 -0.226562,2.300781 -0.152344,0.761719 -0.375,1.5 -0.671875,2.214844 -0.296875,0.718746 -0.660156,1.398436 -1.09375,2.042966 -0.429688,0.64453 -0.917969,1.24219 -1.464844,1.78907 -0.550781,0.54687 -1.144531,1.03515 -1.789062,1.46875 -0.644532,0.42968 -1.328126,0.79296 -2.042969,1.08984 -0.714844,0.29687 -1.453125,0.51953 -2.214844,0.67187 -0.761719,0.15235 -1.527344,0.22657 -2.304687,0.22657 -0.773438,0 -1.542969,-0.0742 -2.300782,-0.22657 -0.761718,-0.15234 -1.5,-0.375 -2.214844,-0.67187 -0.71875,-0.29688 -1.398437,-0.66016 -2.042968,-1.08984 -0.644532,-0.4336 -1.242188,-0.92188 -1.789063,-1.46875 -0.546875,-0.54688 -1.039062,-1.14454 -1.46875,-1.78907 -0.429687,-0.64453 -0.792969,-1.32422 -1.089843,-2.042966 C 19.601562,98.90625 19.378906,98.167969 19.226562,97.40625 19.074219,96.648438 19,95.878906 19,95.105469 c 0,-0.777344 0.07422,-1.542969 0.226562,-2.304688 0.152344,-0.761719 0.375,-1.5 0.671876,-2.214843 0.296874,-0.714844 0.660156,-1.398438 1.089843,-2.042969 0.429688,-0.644531 0.921875,-1.238281 1.46875,-1.789063 0.546875,-0.546875 1.144531,-1.035156 1.789063,-1.46875 0.644531,-0.429687 1.324218,-0.792968 2.042968,-1.089844 0.714844,-0.296874 1.453126,-0.519531 2.214844,-0.671874 0.757813,-0.152344 1.527344,-0.226563 2.300782,-0.226563 0.777343,0 1.542968,0.07422 2.304687,0.226563 0.761719,0.152343 1.5,0.375 2.214844,0.671874 0.714843,0.296876 1.398437,0.660157 2.042969,1.089844 0.644531,0.433594 1.238281,0.921875 1.789062,1.46875 0.546875,0.550782 1.035156,1.144532 1.464844,1.789063 0.433594,0.644531 0.796875,1.328125 1.09375,2.042969 0.296875,0.714843 0.519531,1.453124 0.671875,2.214843 0.152343,0.761719 0.226562,1.527344 0.226562,2.304688 z m 0,0"
           fill-opacity="1"
           fill-rule="nonzero"
           id="path7" />
      </g>
      <path
         fill="#d9d9d9"
         d="M 30.804688,105.78516 C 24.910156,105.78516 20.125,101 20.125,95.105469 c 0,-5.894531 4.785156,-10.683594 10.679688,-10.683594 5.894531,0 10.683593,4.789063 10.683593,10.683594 0,5.894531 -4.789062,10.679691 -10.683593,10.679691 z m 0,-21.09766 c -5.753907,0 -10.414063,4.664062 -10.414063,10.417969 0,5.753911 4.679687,10.414061 10.414063,10.414061 5.753906,0 10.417968,-4.67969 10.417968,-10.414061 0,-5.753907 -4.664062,-10.417969 -10.417968,-10.417969 z m 0,0"
         fill-opacity="1"
         fill-rule="nonzero"
         id="path8" />
      <g
         clip-path="url(#d7bd831049)"
         id="g9">
        <path
           fill="#d9d9d9"
           d="m 120.67578,95.105469 c 0,0.773437 -0.0742,1.542969 -0.22656,2.300781 -0.15234,0.761719 -0.375,1.5 -0.67188,2.214844 -0.29687,0.718746 -0.66015,1.398436 -1.08984,2.042966 -0.43359,0.64453 -0.92187,1.24219 -1.46875,1.78907 -0.55078,0.54687 -1.14453,1.03515 -1.78906,1.46875 -0.64453,0.42968 -1.32813,0.79296 -2.04297,1.08984 -0.71484,0.29687 -1.45313,0.51953 -2.21484,0.67187 -0.76172,0.15235 -1.52735,0.22657 -2.30469,0.22657 -0.77344,0 -1.54297,-0.0742 -2.30078,-0.22657 -0.76172,-0.15234 -1.5,-0.375 -2.21485,-0.67187 -0.71875,-0.29688 -1.39843,-0.66016 -2.04297,-1.08984 -0.64453,-0.4336 -1.24218,-0.92188 -1.78906,-1.46875 -0.546874,-0.54688 -1.039061,-1.14454 -1.468749,-1.78907 -0.429687,-0.64453 -0.792969,-1.32422 -1.089843,-2.042966 C 97.664062,98.90625 97.441406,98.167969 97.289062,97.40625 97.136719,96.648438 97.0625,95.878906 97.0625,95.105469 c 0,-0.777344 0.07422,-1.542969 0.226562,-2.304688 0.152344,-0.761719 0.375,-1.5 0.671876,-2.214843 0.296874,-0.714844 0.660156,-1.398438 1.089843,-2.042969 0.429688,-0.644531 0.921875,-1.238281 1.468749,-1.789063 0.54688,-0.546875 1.14453,-1.035156 1.78906,-1.46875 0.64454,-0.429687 1.32422,-0.792968 2.04297,-1.089844 0.71485,-0.296874 1.45313,-0.519531 2.21485,-0.671874 0.75781,-0.152344 1.52734,-0.226563 2.30078,-0.226563 0.77734,0 1.54297,0.07422 2.30469,0.226563 0.76171,0.152343 1.5,0.375 2.21484,0.671874 0.71484,0.296876 1.39844,0.660157 2.04297,1.089844 0.64453,0.433594 1.23828,0.921875 1.78906,1.46875 0.54688,0.550782 1.03516,1.144532 1.46875,1.789063 0.42969,0.644531 0.79297,1.328125 1.08984,2.042969 0.29688,0.714843 0.51954,1.453124 0.67188,2.214843 0.15234,0.761719 0.22656,1.527344 0.22656,2.304688 z m 0,0"
           fill-opacity="1"
           fill-rule="nonzero"
           id="path9" />
      </g>
      <path
         fill="#d9d9d9"
         d="m 108.86719,105.78516 c -5.89453,0 -10.67969,-4.78516 -10.67969,-10.679691 0,-5.894531 4.78516,-10.683594 10.67969,-10.683594 5.89453,0 10.68359,4.789063 10.68359,10.683594 0,5.894531 -4.78906,10.679691 -10.68359,10.679691 z m 0,-21.09766 c -5.75391,0 -10.414065,4.664062 -10.414065,10.417969 0,5.753911 4.679685,10.414061 10.414065,10.414061 5.7539,0 10.41797,-4.67969 10.41797,-10.414061 0,-5.753907 -4.66407,-10.417969 -10.41797,-10.417969 z m 0,0"
         fill-opacity="1"
         fill-rule="nonzero"
         id="path10" />
      <g
         clip-path="url(#431ce67211)"
         id="g11">
        <path
           fill="#d9d9d9"
           d="m 191.37109,67.28125 c 0,0.773438 -0.0742,1.542969 -0.22656,2.300781 -0.15234,0.761719 -0.375,1.5 -0.67187,2.214844 -0.29688,0.71875 -0.66016,1.398437 -1.08985,2.042969 -0.43359,0.644531 -0.92187,1.242187 -1.46875,1.789062 -0.55078,0.546875 -1.14453,1.039063 -1.78906,1.46875 -0.64453,0.429688 -1.32422,0.792969 -2.04297,1.089844 -0.71484,0.296875 -1.45312,0.523438 -2.21484,0.671875 -0.75782,0.152344 -1.52735,0.226563 -2.30469,0.226563 -0.77344,0 -1.54297,-0.07422 -2.30078,-0.226563 -0.76172,-0.148437 -1.5,-0.375 -2.21485,-0.671875 -0.71875,-0.296875 -1.39843,-0.660156 -2.04296,-1.089844 -0.64454,-0.429687 -1.23829,-0.921875 -1.78907,-1.46875 -0.54687,-0.546875 -1.03515,-1.144531 -1.46875,-1.789062 -0.42968,-0.644532 -0.79297,-1.324219 -1.08984,-2.042969 -0.29688,-0.714844 -0.51953,-1.453125 -0.67188,-2.214844 -0.15234,-0.757812 -0.22656,-1.527343 -0.22656,-2.300781 0,-0.777344 0.0742,-1.542969 0.22656,-2.304688 0.15235,-0.761718 0.375,-1.5 0.67188,-2.214843 0.29687,-0.714844 0.66016,-1.394531 1.08984,-2.039063 0.4336,-0.644531 0.92188,-1.242187 1.46875,-1.792968 0.55078,-0.546876 1.14453,-1.035157 1.78907,-1.464844 0.64453,-0.433594 1.32421,-0.796875 2.04296,-1.09375 0.71485,-0.296875 1.45313,-0.519532 2.21485,-0.671875 0.75781,-0.148438 1.52734,-0.226563 2.30078,-0.226563 0.77734,0 1.54687,0.07813 2.30469,0.226563 0.76172,0.152343 1.5,0.375 2.21484,0.671875 0.71875,0.296875 1.39844,0.660156 2.04297,1.09375 0.64453,0.429687 1.23828,0.917968 1.78906,1.464844 0.54688,0.550781 1.03516,1.148437 1.46875,1.792968 0.42969,0.644532 0.79297,1.324219 1.08985,2.039063 0.29687,0.714843 0.51953,1.453125 0.67187,2.214843 0.15234,0.761719 0.22656,1.527344 0.22656,2.304688 z m 0,0"
           fill-opacity="1"
           fill-rule="nonzero"
           id="path11" />
      </g>
      <path
         fill="#d9d9d9"
         d="m 179.5625,77.960938 c -5.89453,0 -10.67969,-4.785157 -10.67969,-10.679688 0,-5.894531 4.78516,-10.683594 10.67969,-10.683594 5.89844,0 10.68359,4.789063 10.68359,10.683594 0,5.894531 -4.78515,10.679688 -10.68359,10.679688 z m 0,-21.097657 c -5.75391,0 -10.41406,4.664063 -10.41406,10.417969 0,5.753906 4.67968,10.417969 10.41406,10.417969 5.75391,0 10.41797,-4.683594 10.41797,-10.417969 0,-5.753906 -4.66406,-10.417969 -10.41797,-10.417969 z m 0,0"
         fill-opacity="1"
         fill-rule="nonzero"
         id="path12" />
      <g
         clip-path="url(#2017044023)"
         id="g16">
        <g
           transform="translate(162,117)"
           id="g15">
          <g
             clip-path="url(#d3ef07db29)"
             id="g14">
            <g
               clip-path="url(#83856316b5)"
               id="g13">
              <path
                 fill="#d9d9d9"
                 d="m 0.132812,0.695312 h 34.851563 v 13.375 H 0.132812 Z m 0,0"
                 fill-opacity="1"
                 fill-rule="nonzero"
                 id="path13" />
            </g>
          </g>
        </g>
      </g>
      <g
         clip-path="url(#02f576a3b6)"
         id="g17">
        <path
           fill="#d9d9d9"
           d="m 262.26953,94.558594 c 0,0.777344 -0.0781,1.542968 -0.22656,2.304687 -0.15235,0.761719 -0.375,1.5 -0.67188,2.214844 -0.29687,0.714844 -0.66015,1.398435 -1.09375,2.042965 -0.42968,0.64454 -0.91797,1.23829 -1.46875,1.78907 -0.54687,0.54687 -1.14453,1.03515 -1.78906,1.46875 -0.64453,0.42968 -1.32422,0.79297 -2.03906,1.08984 -0.71875,0.29688 -1.45703,0.51953 -2.21485,0.67188 -0.76171,0.15234 -1.52734,0.22656 -2.30468,0.22656 -0.77344,0 -1.54297,-0.0742 -2.30469,-0.22656 -0.75781,-0.15235 -1.49609,-0.375 -2.21484,-0.67188 -0.71485,-0.29687 -1.39454,-0.66016 -2.03907,-1.08984 -0.64453,-0.4336 -1.24218,-0.92188 -1.78906,-1.46875 -0.55078,-0.55078 -1.03906,-1.14453 -1.46875,-1.78907 -0.42969,-0.64453 -0.79297,-1.328121 -1.08984,-2.042965 -0.29688,-0.714844 -0.52344,-1.453125 -0.67188,-2.214844 -0.15234,-0.761719 -0.22656,-1.527343 -0.22656,-2.304687 0,-0.773438 0.0742,-1.542969 0.22656,-2.300782 0.14844,-0.761718 0.375,-1.5 0.67188,-2.214843 0.29687,-0.71875 0.66015,-1.398438 1.08984,-2.042969 0.42969,-0.644531 0.91797,-1.242188 1.46875,-1.789062 0.54688,-0.546876 1.14453,-1.039063 1.78906,-1.46875 0.64453,-0.429688 1.32422,-0.792969 2.03907,-1.089844 0.71875,-0.296875 1.45703,-0.519532 2.21484,-0.671875 0.76172,-0.152344 1.53125,-0.226563 2.30469,-0.226563 0.77734,0 1.54297,0.07422 2.30468,0.226563 0.75782,0.152343 1.4961,0.375 2.21485,0.671875 0.71484,0.296875 1.39453,0.660156 2.03906,1.089844 0.64453,0.429687 1.24219,0.921874 1.78906,1.46875 0.55078,0.546874 1.03907,1.144531 1.46875,1.789062 0.4336,0.644531 0.79688,1.324219 1.09375,2.042969 0.29688,0.714843 0.51953,1.453125 0.67188,2.214843 0.14844,0.757813 0.22656,1.527344 0.22656,2.300782 z m 0,0"
           fill-opacity="1"
           fill-rule="nonzero"
           id="path16" />
      </g>
      <path
         fill="#d9d9d9"
         d="m 250.46094,105.24219 c -5.89453,0 -10.67969,-4.78906 -10.67969,-10.683596 0,-5.894532 4.78516,-10.679688 10.67969,-10.679688 5.89453,0 10.67968,4.785156 10.67968,10.679688 0,5.894536 -4.78515,10.683596 -10.67968,10.683596 z m 0,-21.097659 c -5.75391,0 -10.41797,4.660157 -10.41797,10.414063 0,5.753906 4.68359,10.417966 10.41797,10.417966 5.7539,0 10.41797,-4.67968 10.41797,-10.417966 0,-5.753906 -4.66407,-10.414063 -10.41797,-10.414063 z m 0,0"
         fill-opacity="1"
         fill-rule="nonzero"
         id="path17" />
      <g
         fill="#000000"
         fill-opacity="1"
         id="g20">
        <g
           transform="translate(18.053864,155.1433)"
           id="g19">
          <g
             id="g18">
            <path
               d="M 2.375,-23.734375 H 13.90625 V -22.375 H 3.734375 v 8.46875 h 6.78125 v 1.359375 H 3.734375 V 0 H 2.375 Z m 0,0"
               id="path18" />
          </g>
        </g>
      </g>
      <g
         fill="#000000"
         fill-opacity="1"
         id="g23">
        <g
           transform="translate(37.446548,155.1433)"
           id="g22">
          <g
             id="g21">
            <path
               d="M 2.375,-23.734375 H 3.734375 V 0 H 2.375 Z m 0,0"
               id="path20" />
          </g>
        </g>
      </g>
      <g
         fill="#000000"
         fill-opacity="1"
         id="g26">
        <g
           transform="translate(289.15316,50.14396)"
           id="g25">
          <g
             id="g24">
            <path
               d="M 6.75,-3.375 C 6.75,-3.71875 6.675781,-4.023438 6.53125,-4.296875 6.382812,-4.578125 6.1875,-4.820312 5.9375,-5.03125 5.695312,-5.25 5.410156,-5.429688 5.078125,-5.578125 4.753906,-5.734375 4.40625,-5.847656 4.03125,-5.921875 3.644531,-5.992188 3.285156,-6.109375 2.953125,-6.265625 2.617188,-6.421875 2.320312,-6.613281 2.0625,-6.84375 1.800781,-7.070312 1.597656,-7.335938 1.453125,-7.640625 c -0.148437,-0.300781 -0.21875,-0.632813 -0.21875,-1 0,-0.425781 0.070313,-0.816406 0.21875,-1.171875 0.144531,-0.363281 0.34375,-0.675781 0.59375,-0.9375 0.257813,-0.269531 0.554687,-0.476562 0.890625,-0.625 0.34375,-0.144531 0.707031,-0.21875 1.09375,-0.21875 0.5625,0 1.078125,0.132812 1.546875,0.390625 0.476563,0.25 0.875,0.589844 1.1875,1.015625 L 6.21875,-9.828125 c -0.25,-0.332031 -0.5625,-0.597656 -0.9375,-0.796875 -0.375,-0.207031 -0.792969,-0.3125 -1.25,-0.3125 -0.292969,0 -0.570312,0.05859 -0.828125,0.171875 -0.261719,0.105469 -0.492187,0.261719 -0.6875,0.46875 -0.199219,0.199219 -0.355469,0.445313 -0.46875,0.734375 -0.105469,0.28125 -0.15625,0.589844 -0.15625,0.921875 0,0.28125 0.0625,0.539063 0.1875,0.765625 0.125,0.21875 0.289063,0.417969 0.5,0.59375 0.207031,0.167969 0.445313,0.308594 0.71875,0.421875 0.28125,0.117187 0.566406,0.203125 0.859375,0.265625 0.46875,0.074219 0.894531,0.203125 1.28125,0.390625 0.394531,0.1875 0.738281,0.421875 1.03125,0.703125 0.289062,0.28125 0.519531,0.601562 0.6875,0.953125 0.164062,0.355469 0.25,0.746094 0.25,1.171875 0,0.5 -0.089844,0.964844 -0.265625,1.390625 -0.179687,0.417969 -0.421875,0.78125 -0.734375,1.09375 -0.304688,0.304687 -0.664062,0.542969 -1.078125,0.71875 -0.40625,0.16796875 -0.839844,0.25 -1.296875,0.25 -0.460938,0 -0.898438,-0.08203125 -1.3125,-0.25 C 2.3125,-0.347656 1.953125,-0.585938 1.640625,-0.890625 1.335938,-1.203125 1.097656,-1.5625 0.921875,-1.96875 0.742188,-2.382812 0.65625,-2.828125 0.65625,-3.296875 H 1.3125 c 0,0.375 0.070312,0.730469 0.21875,1.0625 0.144531,0.324219 0.335938,0.609375 0.578125,0.859375 0.25,0.25 0.535156,0.449219 0.859375,0.59375 0.332031,0.136719 0.6875,0.203125 1.0625,0.203125 0.375,0 0.722656,-0.066406 1.046875,-0.203125 C 5.410156,-0.914062 5.695312,-1.109375 5.9375,-1.359375 6.1875,-1.609375 6.382812,-1.90625 6.53125,-2.25 6.675781,-2.59375 6.75,-2.96875 6.75,-3.375 Z m 0,0"
               id="path23" />
          </g>
        </g>
      </g>
      <g
         fill="#000000"
         fill-opacity="1"
         id="g29">
        <g
           transform="translate(299.54989,50.14396)"
           id="g28">
          <g
             id="g27">
            <path
               d="m 1.015625,-8.21875 1.8125,7.390625 1.8125,-7.390625 h 0.6875 L 3.328125,0 H 2.34375 L 0.328125,-8.21875 Z m 0,0"
               id="path26" />
          </g>
        </g>
      </g>
      <g
         fill="#000000"
         fill-opacity="1"
         id="g32">
        <g
           transform="translate(307.54522,50.14396)"
           id="g31">
          <g
             id="g30">
            <path
               d="m 3.203125,0.078125 c -0.34375,0 -0.667969,-0.0625 -0.96875,-0.1875 -0.304687,-0.125 -0.5625,-0.296875 -0.78125,-0.515625 -0.21875,-0.226562 -0.398437,-0.5 -0.53125,-0.8125 -0.125,-0.3125 -0.1875,-0.65625 -0.1875,-1.03125 v -3.296875 c 0,-0.375 0.0625,-0.71875 0.1875,-1.03125 0.132813,-0.3125 0.3125,-0.582031 0.53125,-0.8125 0.21875,-0.226563 0.476563,-0.398437 0.78125,-0.515625 0.300781,-0.125 0.625,-0.1875 0.96875,-0.1875 0.34375,0 0.660156,0.0625 0.953125,0.1875 0.300781,0.117188 0.5625,0.289062 0.78125,0.515625 0.226562,0.230469 0.40625,0.5 0.53125,0.8125 0.132812,0.3125 0.203125,0.65625 0.203125,1.03125 v 3.296875 c 0,0.375 -0.070313,0.71875 -0.203125,1.03125 -0.125,0.3125 -0.304688,0.585938 -0.53125,0.8125 -0.21875,0.21875 -0.480469,0.390625 -0.78125,0.515625 -0.292969,0.125 -0.609375,0.1875 -0.953125,0.1875 z M 1.40625,-2.46875 c 0,0.59375 0.160156,1.058594 0.484375,1.390625 0.320313,0.335937 0.757813,0.5 1.3125,0.5 0.53125,0 0.960937,-0.164063 1.296875,-0.5 C 4.84375,-1.410156 5.015625,-1.875 5.015625,-2.46875 v -3.296875 c 0,-0.59375 -0.171875,-1.054687 -0.515625,-1.390625 -0.335938,-0.332031 -0.765625,-0.5 -1.296875,-0.5 -0.554687,0 -0.992187,0.167969 -1.3125,0.5 -0.324219,0.335938 -0.484375,0.796875 -0.484375,1.390625 z m 0,0"
               id="path29" />
          </g>
        </g>
      </g>
      <g
         fill="#000000"
         fill-opacity="1"
         id="g35">
        <g
           transform="translate(316.29717,50.14396)"
           id="g34">
          <g
             id="g33">
            <path
               d="m 1.453125,-0.65625 h 3.5625 V 0 H 0.40625 L 3.8125,-7.5625 H 0.578125 v -0.65625 h 4.28125 z m 0,0"
               id="path32" />
          </g>
        </g>
      </g>
      <g
         fill="#000000"
         fill-opacity="1"
         id="g38">
        <g
           transform="translate(324.06224,50.14396)"
           id="g37">
          <g
             id="g36">
            <path
               d="M 1.0625,0 V -8.21875 H 1.734375 V 0 Z M 0.984375,-10.125 c 0,-0.113281 0.035156,-0.207031 0.109375,-0.28125 0.082031,-0.08203 0.1875,-0.125 0.3125,-0.125 0.113281,0 0.207031,0.04297 0.28125,0.125 0.082031,0.07422 0.125,0.167969 0.125,0.28125 0,0.125 -0.042969,0.230469 -0.125,0.3125 -0.074219,0.074219 -0.167969,0.109375 -0.28125,0.109375 -0.125,0 -0.230469,-0.035156 -0.3125,-0.109375 C 1.019531,-9.894531 0.984375,-10 0.984375,-10.125 Z m 0,0"
               id="path35" />
          </g>
        </g>
      </g>
      <g
         fill="#000000"
         fill-opacity="1"
         id="g41">
        <g
           transform="translate(329.19563,50.14396)"
           id="g40">
          <g
             id="g39">
            <path
               d="m 0.984375,-11.515625 h 0.65625 v 9.125 c 0,0.3125 0,0.574219 0,0.78125 0.00781,0.210937 0.035156,0.390625 0.078125,0.546875 0.039062,0.148438 0.101562,0.265625 0.1875,0.359375 0.09375,0.085937 0.222656,0.125 0.390625,0.125 v 0.65625 c -0.304687,0 -0.542969,-0.0625 -0.71875,-0.1875 -0.179687,-0.125 -0.3125,-0.289063 -0.40625,-0.5 C 1.085938,-0.828125 1.035156,-1.082031 1.015625,-1.375 0.992188,-1.664062 0.984375,-2.003906 0.984375,-2.390625 Z m 0,0"
               id="path38" />
          </g>
        </g>
      </g>
      <g
         fill="#000000"
         fill-opacity="1"
         id="g44">
        <g
           transform="translate(334.49351,50.14396)"
           id="g43">
          <g
             id="g42">
            <path
               d="m 3.203125,0.078125 c -0.34375,0 -0.667969,-0.0625 -0.96875,-0.1875 -0.304687,-0.125 -0.5625,-0.296875 -0.78125,-0.515625 -0.21875,-0.226562 -0.398437,-0.5 -0.53125,-0.8125 -0.125,-0.3125 -0.1875,-0.65625 -0.1875,-1.03125 v -3.296875 c 0,-0.375 0.0625,-0.71875 0.1875,-1.03125 0.132813,-0.3125 0.3125,-0.582031 0.53125,-0.8125 0.21875,-0.226563 0.476563,-0.398437 0.78125,-0.515625 0.300781,-0.125 0.625,-0.1875 0.96875,-0.1875 0.34375,0 0.660156,0.0625 0.953125,0.1875 0.300781,0.117188 0.5625,0.289062 0.78125,0.515625 0.226562,0.230469 0.40625,0.5 0.53125,0.8125 0.132812,0.3125 0.203125,0.65625 0.203125,1.03125 v 3.296875 c 0,0.375 -0.070313,0.71875 -0.203125,1.03125 -0.125,0.3125 -0.304688,0.585938 -0.53125,0.8125 -0.21875,0.21875 -0.480469,0.390625 -0.78125,0.515625 -0.292969,0.125 -0.609375,0.1875 -0.953125,0.1875 z M 1.40625,-2.46875 c 0,0.59375 0.160156,1.058594 0.484375,1.390625 0.320313,0.335937 0.757813,0.5 1.3125,0.5 0.53125,0 0.960937,-0.164063 1.296875,-0.5 C 4.84375,-1.410156 5.015625,-1.875 5.015625,-2.46875 v -3.296875 c 0,-0.59375 -0.171875,-1.054687 -0.515625,-1.390625 -0.335938,-0.332031 -0.765625,-0.5 -1.296875,-0.5 -0.554687,0 -0.992187,0.167969 -1.3125,0.5 -0.324219,0.335938 -0.484375,0.796875 -0.484375,1.390625 z m 0,0"
               id="path41" />
          </g>
        </g>
      </g>
      <g
         fill="#000000"
         fill-opacity="1"
         id="g47">
        <g
           transform="translate(343.24546,50.14396)"
           id="g46">
          <g
             id="g45">
            <path
               d="m 1.015625,-8.21875 1.8125,7.390625 1.8125,-7.390625 h 0.6875 L 3.328125,0 H 2.34375 L 0.328125,-8.21875 Z m 0,0"
               id="path44" />
          </g>
        </g>
      </g>
      <g
         fill="#000000"
         fill-opacity="1"
         id="g50">
        <g
           transform="translate(351.24079,50.14396)"
           id="g49">
          <g
             id="g48">
            <path
               d="m 4.3125,-3.765625 c -0.15625,-0.113281 -0.335938,-0.195313 -0.53125,-0.25 -0.199219,-0.0625 -0.40625,-0.09375 -0.625,-0.09375 -0.523438,0 -0.953125,0.152344 -1.296875,0.453125 -0.34375,0.304688 -0.515625,0.699219 -0.515625,1.1875 0,0.59375 0.171875,1.058594 0.515625,1.390625 0.34375,0.335937 0.773437,0.5 1.296875,0.5 0.5625,0 1.003906,-0.164063 1.328125,-0.5 C 4.804688,-1.410156 4.96875,-1.875 4.96875,-2.46875 v -3.296875 c 0,-0.59375 -0.164062,-1.054687 -0.484375,-1.390625 -0.324219,-0.332031 -0.765625,-0.5 -1.328125,-0.5 -0.625,0 -1.132812,0.246094 -1.515625,0.734375 L 1.125,-7.234375 C 1.320312,-7.566406 1.609375,-7.828125 1.984375,-8.015625 2.359375,-8.210938 2.75,-8.3125 3.15625,-8.3125 c 0.351562,0 0.679688,0.0625 0.984375,0.1875 0.300781,0.117188 0.5625,0.289062 0.78125,0.515625 0.21875,0.230469 0.390625,0.5 0.515625,0.8125 0.125,0.3125 0.1875,0.65625 0.1875,1.03125 v 3.296875 c 0,0.273438 0,0.515625 0,0.734375 0.00781,0.21875 0.035156,0.414063 0.078125,0.578125 0.039063,0.15625 0.101563,0.28125 0.1875,0.375 0.09375,0.085938 0.222656,0.125 0.390625,0.125 V 0 C 5.9375,0 5.675781,-0.078125 5.5,-0.234375 5.320312,-0.398438 5.191406,-0.613281 5.109375,-0.875 c -0.21875,0.292969 -0.5,0.527344 -0.84375,0.703125 -0.335937,0.16796875 -0.703125,0.25 -1.109375,0.25 -0.335938,0 -0.652344,-0.0625 -0.953125,-0.1875 C 1.910156,-0.234375 1.648438,-0.40625 1.421875,-0.625 1.191406,-0.851562 1.007812,-1.125 0.875,-1.4375 0.75,-1.75 0.6875,-2.09375 0.6875,-2.46875 c 0,-0.3125 0.0625,-0.609375 0.1875,-0.890625 0.132812,-0.28125 0.316406,-0.523437 0.546875,-0.734375 0.226563,-0.207031 0.488281,-0.367188 0.78125,-0.484375 0.300781,-0.125 0.617187,-0.1875 0.953125,-0.1875 0.414062,0 0.800781,0.09375 1.15625,0.28125 z M 3.015625,-9.703125 3.65625,-11.6875 H 4.375 l -0.84375,1.984375 z m 0,0"
               id="path47" />
          </g>
        </g>
      </g>
      <g
         fill="#000000"
         fill-opacity="1"
         id="g53">
        <g
           transform="translate(289.15316,146.03261)"
           id="g52">
          <g
             id="g51">
            <path
               d="M 3.421875,0 0.4375,-12.234375 h 0.703125 l 2.8125,11.484375 2.8125,-11.484375 h 0.6875 L 4.46875,0 Z m 0,0"
               id="path50" />
          </g>
        </g>
      </g>
      <g
         fill="#000000"
         fill-opacity="1"
         id="g56">
        <g
           transform="translate(298.82935,146.03261)"
           id="g55">
          <g
             id="g54">
            <path
               d="m 4.578125,-4 c -0.167969,-0.113281 -0.355469,-0.203125 -0.5625,-0.265625 -0.210937,-0.0625 -0.429687,-0.09375 -0.65625,-0.09375 -0.5625,0 -1.027344,0.164063 -1.390625,0.484375 -0.355469,0.3125 -0.53125,0.730469 -0.53125,1.25 0,0.636719 0.175781,1.132812 0.53125,1.484375 0.363281,0.355469 0.828125,0.53125 1.390625,0.53125 0.59375,0 1.0625,-0.175781 1.40625,-0.53125 C 5.109375,-1.492188 5.28125,-1.988281 5.28125,-2.625 V -6.109375 C 5.28125,-6.753906 5.109375,-7.25 4.765625,-7.59375 4.421875,-7.945312 3.953125,-8.125 3.359375,-8.125 2.691406,-8.125 2.15625,-7.867188 1.75,-7.359375 L 1.1875,-7.6875 c 0.207031,-0.34375 0.507812,-0.617188 0.90625,-0.828125 0.40625,-0.207031 0.828125,-0.3125 1.265625,-0.3125 0.363281,0 0.707031,0.070313 1.03125,0.203125 0.320313,0.125 0.597656,0.308594 0.828125,0.546875 0.238281,0.242187 0.421875,0.527344 0.546875,0.859375 0.132813,0.335938 0.203125,0.703125 0.203125,1.109375 V -2.625 c 0,0.292969 0,0.558594 0,0.796875 0.00781,0.230469 0.035156,0.429687 0.078125,0.59375 C 6.085938,-1.066406 6.15625,-0.9375 6.25,-0.84375 6.351562,-0.75 6.492188,-0.703125 6.671875,-0.703125 V 0 C 6.296875,0 6.015625,-0.0820312 5.828125,-0.25 5.648438,-0.414062 5.519531,-0.640625 5.4375,-0.921875 5.195312,-0.617188 4.894531,-0.375 4.53125,-0.1875 4.175781,0 3.785156,0.09375 3.359375,0.09375 2.992188,0.09375 2.65625,0.0234375 2.34375,-0.109375 2.03125,-0.242188 1.753906,-0.429688 1.515625,-0.671875 1.273438,-0.910156 1.082031,-1.195312 0.9375,-1.53125 0.800781,-1.863281 0.734375,-2.226562 0.734375,-2.625 c 0,-0.332031 0.066406,-0.644531 0.203125,-0.9375 C 1.082031,-3.863281 1.273438,-4.125 1.515625,-4.34375 1.753906,-4.570312 2.03125,-4.75 2.34375,-4.875 2.65625,-5 2.992188,-5.0625 3.359375,-5.0625 c 0.4375,0 0.84375,0.101562 1.21875,0.296875 z m 0,0"
               id="path53" />
          </g>
        </g>
      </g>
      <g
         fill="#000000"
         fill-opacity="1"
         id="g59">
        <g
           transform="translate(308.33108,146.03261)"
           id="g58">
          <g
             id="g57">
            <path
               d="M 1.046875,-12.234375 H 1.75 v 9.703125 c 0,0.324219 0,0.601562 0,0.828125 0.00781,0.21875 0.035156,0.414063 0.078125,0.578125 0.039063,0.15625 0.109375,0.28125 0.203125,0.375 0.09375,0.09375 0.234375,0.140625 0.421875,0.140625 V 0.09375 c -0.335937,0 -0.59375,-0.0703125 -0.78125,-0.203125 C 1.484375,-0.242188 1.34375,-0.425781 1.25,-0.65625 1.164062,-0.882812 1.109375,-1.148438 1.078125,-1.453125 1.054688,-1.765625 1.046875,-2.125 1.046875,-2.53125 Z m 0,0"
               id="path56" />
          </g>
        </g>
      </g>
      <g
         fill="#000000"
         fill-opacity="1"
         id="g62">
        <g
           transform="translate(313.95559,146.03261)"
           id="g61">
          <g
             id="g60">
            <path
               d="m 4.578125,-4 c -0.167969,-0.113281 -0.355469,-0.203125 -0.5625,-0.265625 -0.210937,-0.0625 -0.429687,-0.09375 -0.65625,-0.09375 -0.5625,0 -1.027344,0.164063 -1.390625,0.484375 -0.355469,0.3125 -0.53125,0.730469 -0.53125,1.25 0,0.636719 0.175781,1.132812 0.53125,1.484375 0.363281,0.355469 0.828125,0.53125 1.390625,0.53125 0.59375,0 1.0625,-0.175781 1.40625,-0.53125 C 5.109375,-1.492188 5.28125,-1.988281 5.28125,-2.625 V -6.109375 C 5.28125,-6.753906 5.109375,-7.25 4.765625,-7.59375 4.421875,-7.945312 3.953125,-8.125 3.359375,-8.125 2.691406,-8.125 2.15625,-7.867188 1.75,-7.359375 L 1.1875,-7.6875 c 0.207031,-0.34375 0.507812,-0.617188 0.90625,-0.828125 0.40625,-0.207031 0.828125,-0.3125 1.265625,-0.3125 0.363281,0 0.707031,0.070313 1.03125,0.203125 0.320313,0.125 0.597656,0.308594 0.828125,0.546875 0.238281,0.242187 0.421875,0.527344 0.546875,0.859375 0.132813,0.335938 0.203125,0.703125 0.203125,1.109375 V -2.625 c 0,0.292969 0,0.558594 0,0.796875 0.00781,0.230469 0.035156,0.429687 0.078125,0.59375 C 6.085938,-1.066406 6.15625,-0.9375 6.25,-0.84375 6.351562,-0.75 6.492188,-0.703125 6.671875,-0.703125 V 0 C 6.296875,0 6.015625,-0.0820312 5.828125,-0.25 5.648438,-0.414062 5.519531,-0.640625 5.4375,-0.921875 5.195312,-0.617188 4.894531,-0.375 4.53125,-0.1875 4.175781,0 3.785156,0.09375 3.359375,0.09375 2.992188,0.09375 2.65625,0.0234375 2.34375,-0.109375 2.03125,-0.242188 1.753906,-0.429688 1.515625,-0.671875 1.273438,-0.910156 1.082031,-1.195312 0.9375,-1.53125 0.800781,-1.863281 0.734375,-2.226562 0.734375,-2.625 c 0,-0.332031 0.066406,-0.644531 0.203125,-0.9375 C 1.082031,-3.863281 1.273438,-4.125 1.515625,-4.34375 1.753906,-4.570312 2.03125,-4.75 2.34375,-4.875 2.65625,-5 2.992188,-5.0625 3.359375,-5.0625 c 0.4375,0 0.84375,0.101562 1.21875,0.296875 z m -1.375,-6.3125 L 3.875,-12.40625 H 4.640625 L 3.75,-10.3125 Z m 0,0"
               id="path59" />
          </g>
        </g>
      </g>
      <g
         fill="#000000"
         fill-opacity="1"
         id="g65">
        <g
           transform="translate(323.45732,146.03261)"
           id="g64">
          <g
             id="g63">
            <path
               d="M 4.84375,-12.40625 3.609375,-10.3125 H 2.8125 l -1.21875,-2.09375 h 0.796875 l 0.828125,1.765625 0.8125,-1.765625 z m -1.5,7.359375 c 0.34375,0.042969 0.664062,0.136719 0.96875,0.28125 0.3125,0.136719 0.582031,0.308594 0.8125,0.515625 0.226562,0.210938 0.40625,0.453125 0.53125,0.734375 0.132812,0.273437 0.203125,0.570313 0.203125,0.890625 0,0.398438 -0.074219,0.761719 -0.21875,1.09375 -0.136719,0.335938 -0.324219,0.621094 -0.5625,0.859375 -0.242187,0.242187 -0.523437,0.429687 -0.84375,0.5625 -0.3125,0.1328125 -0.648437,0.203125 -1,0.203125 -0.375,0 -0.726563,-0.0703125 -1.046875,-0.203125 C 1.875,-0.253906 1.597656,-0.445312 1.359375,-0.6875 1.128906,-0.925781 0.945312,-1.203125 0.8125,-1.515625 0.675781,-1.828125 0.609375,-2.164062 0.609375,-2.53125 H 1.3125 c 0,0.5625 0.171875,1.027344 0.515625,1.390625 0.34375,0.355469 0.8125,0.53125 1.40625,0.53125 0.550781,0 1.007813,-0.175781 1.375,-0.53125 C 4.972656,-1.492188 5.15625,-1.988281 5.15625,-2.625 c 0,-0.5 -0.183594,-0.890625 -0.546875,-1.171875 -0.367187,-0.289063 -0.824219,-0.476563 -1.375,-0.5625 C 2.921875,-4.410156 2.625,-4.492188 2.34375,-4.609375 2.070312,-4.734375 1.832031,-4.882812 1.625,-5.0625 1.425781,-5.25 1.265625,-5.457031 1.140625,-5.6875 c -0.125,-0.238281 -0.1875,-0.5 -0.1875,-0.78125 0,-0.34375 0.054687,-0.660156 0.171875,-0.953125 0.125,-0.289063 0.289062,-0.535156 0.5,-0.734375 0.207031,-0.207031 0.445312,-0.367188 0.71875,-0.484375 0.28125,-0.125 0.578125,-0.1875 0.890625,-0.1875 0.488281,0 0.929687,0.121094 1.328125,0.359375 0.394531,0.242188 0.703125,0.554688 0.921875,0.9375 l -0.5625,0.375 C 4.773438,-7.445312 4.554688,-7.679688 4.265625,-7.859375 3.972656,-8.035156 3.628906,-8.125 3.234375,-8.125 c -0.449219,0 -0.824219,0.152344 -1.125,0.453125 -0.304687,0.304687 -0.453125,0.703125 -0.453125,1.203125 0,0.1875 0.046875,0.359375 0.140625,0.515625 0.09375,0.15625 0.21875,0.296875 0.375,0.421875 0.15625,0.125 0.332031,0.230469 0.53125,0.3125 0.207031,0.085938 0.421875,0.140625 0.640625,0.171875 z m 0,0"
               id="path62" />
          </g>
        </g>
      </g>
      <g
         fill="#000000"
         fill-opacity="1"
         id="g68">
        <g
           transform="translate(332.40018,146.03261)"
           id="g67">
          <g
             id="g66">
            <path
               d="m 2.1875,-4.359375 h 1.21875 c 0.5625,0 1.019531,-0.175781 1.375,-0.53125 0.363281,-0.351563 0.546875,-0.789063 0.546875,-1.3125 0,-0.625 -0.183594,-1.097656 -0.546875,-1.421875 -0.355469,-0.332031 -0.8125,-0.5 -1.375,-0.5 -0.59375,0 -1.0625,0.167969 -1.40625,0.5 -0.34375,0.324219 -0.515625,0.796875 -0.515625,1.421875 V -2.625 c 0,0.648438 0.171875,1.148438 0.515625,1.5 0.34375,0.34375 0.8125,0.515625 1.40625,0.515625 0.65625,0 1.1875,-0.253906 1.59375,-0.765625 l 0.5625,0.359375 c -0.242188,0.34375 -0.554688,0.617187 -0.9375,0.8125 -0.386719,0.19921875 -0.792969,0.296875 -1.21875,0.296875 -0.375,0 -0.726562,-0.0625 -1.046875,-0.1875 C 2.046875,-0.226562 1.769531,-0.410156 1.53125,-0.640625 1.300781,-0.878906 1.117188,-1.164062 0.984375,-1.5 0.847656,-1.84375 0.78125,-2.21875 0.78125,-2.625 v -3.484375 c 0,-0.394531 0.066406,-0.757813 0.203125,-1.09375 C 1.117188,-7.535156 1.300781,-7.820312 1.53125,-8.0625 1.769531,-8.300781 2.046875,-8.488281 2.359375,-8.625 2.679688,-8.757812 3.03125,-8.828125 3.40625,-8.828125 c 0.363281,0 0.703125,0.070313 1.015625,0.203125 0.3125,0.136719 0.585937,0.324219 0.828125,0.5625 0.238281,0.242188 0.425781,0.527344 0.5625,0.859375 0.144531,0.335937 0.21875,0.699219 0.21875,1.09375 0,0.335937 -0.074219,0.652344 -0.21875,0.953125 -0.136719,0.292969 -0.324219,0.554688 -0.5625,0.78125 -0.242188,0.21875 -0.515625,0.390625 -0.828125,0.515625 -0.3125,0.125 -0.652344,0.1875 -1.015625,0.1875 H 2.1875 Z m 0,0"
               id="path65" />
          </g>
        </g>
      </g>
      <g
         fill="#000000"
         fill-opacity="1"
         id="g71">
        <g
           transform="translate(341.63995,146.03261)"
           id="g70">
          <g
             id="g69">
            <path
               d="M 1.75,0 H 1.046875 V -12.234375 H 1.75 Z m 4.359375,-8.734375 -3.03125,3.8125 L 6.625,0 H 5.765625 l -3.3125,-4.609375 V -5.3125 L 5.1875,-8.734375 Z m 0,0"
               id="path68" />
          </g>
        </g>
      </g>
      <g
         fill="#000000"
         fill-opacity="1"
         id="g74">
        <g
           transform="translate(96.116822,155.1433)"
           id="g73">
          <g
             id="g72">
            <path
               d="m 2.375,-23.734375 h 1.359375 v 22.375 H 13.90625 V 0 H 2.375 Z m 0,0"
               id="path71" />
          </g>
        </g>
      </g>
      <g
         fill="#000000"
         fill-opacity="1"
         id="g77">
        <g
           transform="translate(115.50951,155.1433)"
           id="g76">
          <g
             id="g75">
            <path
               d="M 2.375,-23.734375 H 3.734375 V 0 H 2.375 Z m 0,0"
               id="path74" />
          </g>
        </g>
      </g>
      <g
         fill="#000000"
         fill-opacity="1"
         id="g80">
        <g
           transform="translate(165.79299,179.21234)"
           id="g79">
          <g
             id="g78">
            <path
               d="M 3.734375,-22.375 V 0 H 2.375 V -23.734375 H 10 c 0.769531,0 1.492188,0.148437 2.171875,0.4375 0.675781,0.292969 1.269531,0.695313 1.78125,1.203125 0.507813,0.511719 0.910156,1.105469 1.203125,1.78125 0.289062,0.679688 0.4375,1.460938 0.4375,2.34375 0,0.65625 -0.148438,1.324219 -0.4375,2 -0.292969,0.679688 -0.695312,1.273438 -1.203125,1.78125 -0.511719,0.511719 -1.105469,0.914062 -1.78125,1.203125 -0.679687,0.292969 -1.402344,0.4375 -2.171875,0.4375 H 5.078125 V -13.90625 H 10 c 0.59375,0 1.140625,-0.109375 1.640625,-0.328125 0.507813,-0.226563 0.957031,-0.535156 1.34375,-0.921875 0.382813,-0.382812 0.6875,-0.832031 0.90625,-1.34375 0.226563,-0.507812 0.34375,-1 0.34375,-1.46875 0,-0.695312 -0.117187,-1.300781 -0.34375,-1.8125 -0.21875,-0.507812 -0.523437,-0.957031 -0.90625,-1.34375 -0.386719,-0.382812 -0.835937,-0.6875 -1.34375,-0.90625 C 11.140625,-22.257812 10.59375,-22.375 10,-22.375 Z m 0,0"
               id="path77" />
          </g>
        </g>
      </g>
      <g
         fill="#d9d9d9"
         fill-opacity="1"
         id="g83">
        <g
           transform="translate(187.22091,179.21234)"
           id="g82">
          <g
             id="g81">
            <path
               d="M 2.375,-23.734375 H 3.734375 V 0 H 2.375 Z m 0.265625,-1.6875 1.265625,-3.265625 h 1.484375 l -1.65625,3.265625 z m 0,0"
               id="path80" />
          </g>
        </g>
      </g>
      <g
         fill="#d9d9d9"
         fill-opacity="1"
         id="g86">
        <g
           transform="translate(231.57446,154.3138)"
           id="g85">
          <g
             id="g84">
            <path
               d="M 3.734375,-21.46875 V 0 H 2.375 v -23.734375 h 1.890625 l 9.640625,21.46875 v -21.46875 H 15.25 V 0 h -1.828125 z m 0,0"
               id="path83" />
          </g>
        </g>
      </g>
      <g
         fill="#d9d9d9"
         fill-opacity="1"
         id="g89">
        <g
           transform="translate(254.01825,154.3138)"
           id="g88">
          <g
             id="g87">
            <path
               d="M 7.65625,-11.65625 V 0 H 6.3125 V -11.65625 L 0.84375,-23.734375 h 1.5625 L 6.984375,-13.5625 11.5625,-23.734375 h 1.484375 z m 0,0"
               id="path86" />
          </g>
        </g>
      </g>
      <g
         fill="#000000"
         fill-opacity="1"
         id="g92">
        <g
           transform="translate(1.098567,55.007039)"
           id="g91">
          <g
             id="g90">
            <path
               d="m 2.375,-23.734375 h 1.359375 v 9.828125 h 11.1875 v -9.828125 H 16.28125 V 0 H 14.921875 V -12.546875 H 3.734375 V 0 H 2.375 Z m 0,0"
               id="path89" />
          </g>
        </g>
      </g>
      <g
         fill="#d9d9d9"
         fill-opacity="1"
         id="g95">
        <g
           transform="translate(24.560565,55.007039)"
           id="g94">
          <g
             id="g93">
            <path
               d="M 5.078125,-13.90625 H 10 c 0.59375,0 1.140625,-0.109375 1.640625,-0.328125 0.507813,-0.226563 0.957031,-0.535156 1.34375,-0.921875 0.382813,-0.382812 0.6875,-0.832031 0.90625,-1.34375 0.226563,-0.507812 0.34375,-1 0.34375,-1.46875 0,-0.695312 -0.117187,-1.300781 -0.34375,-1.8125 -0.21875,-0.507812 -0.523437,-0.957031 -0.90625,-1.34375 -0.386719,-0.382812 -0.835937,-0.6875 -1.34375,-0.90625 C 11.140625,-22.257812 10.59375,-22.375 10,-22.375 H 3.734375 V 0 H 2.375 V -23.734375 H 10 c 0.769531,0 1.492188,0.148437 2.171875,0.4375 0.675781,0.292969 1.269531,0.695313 1.78125,1.203125 0.507813,0.511719 0.910156,1.105469 1.203125,1.78125 0.289062,0.679688 0.4375,1.460938 0.4375,2.34375 0,0.65625 -0.148438,1.324219 -0.4375,2 -0.292969,0.679688 -0.695312,1.273438 -1.203125,1.78125 -0.511719,0.511719 -1.105469,0.914062 -1.78125,1.203125 -0.679687,0.292969 -1.402344,0.4375 -2.171875,0.4375 H 6.75 L 15.796875,0 h -1.65625 l -9.0625,-12.546875 z m 0,0"
               id="path92" />
          </g>
        </g>
      </g>
      <g
         fill="#000000"
         fill-opacity="1"
         id="g98">
        <g
           transform="translate(45.181872,55.007039)"
           id="g97">
          <g
             id="g96">
            <path
               d="M 14.484375,0 H 13.125 L 10.953125,-8.8125 H 4.375 L 2.203125,0 H 0.84375 L 6.640625,-23.734375 H 8.6875 Z M 4.71875,-10.171875 h 5.890625 L 7.65625,-22.28125 Z m 0,0"
               id="path95" />
          </g>
        </g>
      </g>
      <g
         fill="#d9d9d9"
         fill-opacity="1"
         id="g101">
        <g
           transform="translate(80.199259,55.007039)"
           id="g100">
          <g
             id="g99">
            <path
               d="m 3.5625,-6.953125 c 0,0.886719 0.144531,1.667969 0.4375,2.34375 0.289062,0.679687 0.691406,1.273437 1.203125,1.78125 0.507813,0.511719 1.101563,0.914063 1.78125,1.203125 0.675781,0.292969 1.398437,0.4375 2.171875,0.4375 0.769531,0 1.492188,-0.144531 2.171875,-0.4375 0.675781,-0.289062 1.1875,-0.617188 1.53125,-0.984375 0.351563,-0.363281 0.625,-0.660156 0.8125,-0.890625 l 1.140625,0.71875 c -0.21875,0.3125 -0.558594,0.703125 -1.015625,1.171875 C 13.347656,-1.148438 12.695312,-0.738281 11.84375,-0.375 11,-0.0078125 10.101562,0.171875 9.15625,0.171875 c -0.949219,0 -1.851562,-0.1796875 -2.703125,-0.546875 -0.84375,-0.363281 -1.585937,-0.859375 -2.21875,-1.484375 -0.636719,-0.632813 -1.136719,-1.375 -1.5,-2.21875 -0.355469,-0.851563 -0.53125,-1.8125 -0.53125,-2.875 v -9.828125 c 0,-1.0625 0.175781,-2.015625 0.53125,-2.859375 0.363281,-0.851563 0.863281,-1.59375 1.5,-2.21875 0.632813,-0.632813 1.375,-1.132813 2.21875,-1.5 0.851563,-0.363281 1.753906,-0.546875 2.703125,-0.546875 0.945312,0 1.84375,0.183594 2.6875,0.546875 0.851562,0.367187 1.503906,0.78125 1.953125,1.25 0.457031,0.460937 0.796875,0.84375 1.015625,1.15625 l -1.140625,0.71875 c -0.1875,-0.226563 -0.460937,-0.523437 -0.8125,-0.890625 -0.34375,-0.363281 -0.855469,-0.691406 -1.53125,-0.984375 -0.679687,-0.289063 -1.402344,-0.4375 -2.171875,-0.4375 -0.773438,0 -1.496094,0.148437 -2.171875,0.4375 -0.679687,0.292969 -1.273437,0.695313 -1.78125,1.203125 C 4.691406,-20.394531 4.289062,-19.800781 4,-19.125 c -0.292969,0.679688 -0.4375,1.460938 -0.4375,2.34375 z m 0,0"
               id="path98" />
          </g>
        </g>
      </g>
      <g
         fill="#d9d9d9"
         fill-opacity="1"
         id="g104">
        <g
           transform="translate(98.472515,55.007039)"
           id="g103">
          <g
             id="g102">
            <path
               d="m 2.375,-23.734375 h 1.359375 v 9.828125 h 11.1875 v -9.828125 H 16.28125 V 0 H 14.921875 V -12.546875 H 3.734375 V 0 H 2.375 Z m 0,0"
               id="path101" />
          </g>
        </g>
      </g>
      <g
         fill="#d9d9d9"
         fill-opacity="1"
         id="g107">
        <g
           transform="translate(119.22056,55.007039)"
           id="g106">
          <g
             id="g105">
            <path
               d="m 2.203125,-16.78125 c 0,-1.019531 0.175781,-1.960938 0.53125,-2.828125 0.363281,-0.875 0.863281,-1.625 1.5,-2.25 0.632813,-0.632813 1.375,-1.132813 2.21875,-1.5 0.851563,-0.363281 1.753906,-0.546875 2.703125,-0.546875 0.945312,0 1.84375,0.183594 2.6875,0.546875 0.851562,0.367187 1.59375,0.867187 2.21875,1.5 0.632812,0.625 1.132812,1.375 1.5,2.25 0.363281,0.867187 0.546875,1.808594 0.546875,2.828125 v 9.828125 c 0,1.023437 -0.183594,1.96875 -0.546875,2.84375 -0.367188,0.867187 -0.867188,1.617187 -1.5,2.25 -0.625,0.625 -1.367188,1.121094 -2.21875,1.484375 C 11,-0.0078125 10.101562,0.171875 9.15625,0.171875 c -0.949219,0 -1.851562,-0.1796875 -2.703125,-0.546875 -0.84375,-0.363281 -1.585937,-0.859375 -2.21875,-1.484375 -0.636719,-0.632813 -1.136719,-1.382813 -1.5,-2.25 -0.355469,-0.875 -0.53125,-1.820313 -0.53125,-2.84375 z m 12.546875,0 c 0,-0.832031 -0.148438,-1.601562 -0.4375,-2.3125 -0.292969,-0.71875 -0.695312,-1.332031 -1.203125,-1.84375 -0.511719,-0.507812 -1.105469,-0.90625 -1.78125,-1.1875 -0.679687,-0.28125 -1.402344,-0.421875 -2.171875,-0.421875 -0.773438,0 -1.496094,0.140625 -2.171875,0.421875 -0.679687,0.28125 -1.273437,0.679688 -1.78125,1.1875 -0.511719,0.511719 -0.914063,1.125 -1.203125,1.84375 -0.292969,0.710938 -0.4375,1.480469 -0.4375,2.3125 v 9.828125 c 0,0.835937 0.144531,1.609375 0.4375,2.328125 0.289062,0.710938 0.691406,1.320312 1.203125,1.828125 0.507813,0.511719 1.101563,0.90625 1.78125,1.1875 0.675781,0.28125 1.398437,0.421875 2.171875,0.421875 0.769531,0 1.492188,-0.140625 2.171875,-0.421875 0.675781,-0.28125 1.269531,-0.675781 1.78125,-1.1875 C 13.617188,-3.304688 14.019531,-3.914062 14.3125,-4.625 14.601562,-5.34375 14.75,-6.117188 14.75,-6.953125 Z m 0,0"
               id="path104" />
          </g>
        </g>
      </g>
      <g
         fill="#d9d9d9"
         fill-opacity="1"
         id="g110">
        <g
           transform="translate(166.4383,30.108502)"
           id="g109">
          <g
             id="g108">
            <path
               d="M 6.640625,0 0.84375,-23.734375 h 1.359375 l 5.453125,22.28125 5.46875,-22.28125 h 1.359375 L 8.6875,0 Z m 0,0"
               id="path107" />
          </g>
        </g>
      </g>
      <g
         fill="#d9d9d9"
         fill-opacity="1"
         id="g113">
        <g
           transform="translate(186.57681,30.108502)"
           id="g112">
          <g
             id="g111">
            <path
               d="M 2.375,-23.734375 H 3.734375 V 0 H 2.375 Z m 0,0"
               id="path110" />
          </g>
        </g>
      </g>
      <g
         fill="#000000"
         fill-opacity="1"
         id="g116">
        <g
           transform="translate(231.57446,55.007039)"
           id="g115">
          <g
             id="g114">
            <path
               d="M 3.734375,-21.46875 V 0 H 2.375 v -23.734375 h 1.890625 l 9.640625,21.46875 v -21.46875 H 15.25 V 0 h -1.828125 z m 0,0"
               id="path113" />
          </g>
        </g>
      </g>
      <g
         fill="#000000"
         fill-opacity="1"
         id="g119">
        <g
           transform="translate(254.01825,55.007039)"
           id="g118">
          <g
             id="g117">
            <path
               d="M 14.484375,0 H 13.125 L 10.953125,-8.8125 H 4.375 L 2.203125,0 H 0.84375 L 6.640625,-23.734375 H 8.6875 Z M 4.71875,-10.171875 h 5.890625 L 7.65625,-22.28125 Z m 0,0"
               id="path116" />
          </g>
        </g>
      </g>
    </g>
  </g>
</svg>
