<?xml version="1.0" encoding="UTF-8" standalone="no"?>
<svg
   width="559"
   zoomAndPan="magnify"
   viewBox="0 0 419.25 297.74999"
   height="397"
   preserveAspectRatio="xMidYMid"
   version="1.0"
   id="svg121"
   xmlns="http://www.w3.org/2000/svg"
   xmlns:svg="http://www.w3.org/2000/svg">
  <defs
     id="defs6">
    <clipPath
       id="d7bd831049">
      <path
         d="M 97.0625,83.296875 H 121 V 107 H 97.0625 Z m 0,0"
         clip-rule="nonzero"
         id="path2" />
    </clipPath>
    <clipPath
       id="431ce67211">
      <path
         d="m 167.75781,55.472656 h 23.94141 v 23.941406 h -23.94141 z m 0,0"
         clip-rule="nonzero"
         id="path3" />
    </clipPath>
    <clipPath
       id="2017044023">
      <path
         d="m 162.13281,117.69531 h 34.86328 v 13.375 h -34.86328 z m 0,0"
         clip-rule="nonzero"
         id="path4" />
    </clipPath>
    <clipPath
       id="83856316b5">
      <path
         d="m 0.132812,0.695312 h 34.863282 v 13.375 H 0.132812 Z m 0,0"
         clip-rule="nonzero"
         id="path5" />
    </clipPath>
    <clipPath
       id="d3ef07db29">
      <rect
         x="0"
         width="35"
         y="0"
         height="15"
         id="rect5" />
    </clipPath>
    <clipPath
       id="02f576a3b6">
      <path
         d="m 238.65625,82.753906 h 23.94141 v 23.941404 h -23.94141 z m 0,0"
         clip-rule="nonzero"
         id="path6" />
    </clipPath>
    <clipPath
       clipPathUnits="userSpaceOnUse"
       id="clipPath141">
      <rect
         x="-1.8503047e-06"
         width="361"
         y="-7.1904333e-07"
         height="190"
         id="rect141"
         style="stroke-width:0.999997" />
    </clipPath>
  </defs>
  <g
     id="g141"
     transform="translate(-4.6466692,-0.47825225)">
    <g
       clip-path="url(#clipPath141)"
       id="g7"
       transform="translate(73.636901,56.081766)">
      <path
         fill="#d9d9d9"
         d="m 42.613281,95.105469 c 0,0.773437 -0.07422,1.542969 -0.226562,2.300781 -0.152344,0.761719 -0.375,1.5 -0.671875,2.214844 -0.296875,0.718746 -0.660156,1.398436 -1.09375,2.042966 -0.429688,0.64453 -0.917969,1.24219 -1.464844,1.78907 -0.550781,0.54687 -1.144531,1.03515 -1.789062,1.46875 -0.644532,0.42968 -1.328126,0.79296 -2.042969,1.08984 -0.714844,0.29687 -1.453125,0.51953 -2.214844,0.67187 -0.761719,0.15235 -1.527344,0.22657 -2.304687,0.22657 -0.773438,0 -1.542969,-0.0742 -2.300782,-0.22657 -0.761718,-0.15234 -1.5,-0.375 -2.214844,-0.67187 -0.71875,-0.29688 -1.398437,-0.66016 -2.042968,-1.08984 -0.644532,-0.4336 -1.242188,-0.92188 -1.789063,-1.46875 -0.546875,-0.54688 -1.039062,-1.14454 -1.46875,-1.78907 -0.429687,-0.64453 -0.792969,-1.32422 -1.089843,-2.042966 C 19.601562,98.90625 19.378906,98.167969 19.226562,97.40625 19.074219,96.648438 19,95.878906 19,95.105469 c 0,-0.777344 0.07422,-1.542969 0.226562,-2.304688 0.152344,-0.761719 0.375,-1.5 0.671876,-2.214843 0.296874,-0.714844 0.660156,-1.398438 1.089843,-2.042969 0.429688,-0.644531 0.921875,-1.238281 1.46875,-1.789063 0.546875,-0.546875 1.144531,-1.035156 1.789063,-1.46875 0.644531,-0.429687 1.324218,-0.792968 2.042968,-1.089844 0.714844,-0.296874 1.453126,-0.519531 2.214844,-0.671874 0.757813,-0.152344 1.527344,-0.226563 2.300782,-0.226563 0.777343,0 1.542968,0.07422 2.304687,0.226563 0.761719,0.152343 1.5,0.375 2.214844,0.671874 0.714843,0.296876 1.398437,0.660157 2.042969,1.089844 0.644531,0.433594 1.238281,0.921875 1.789062,1.46875 0.546875,0.550782 1.035156,1.144532 1.464844,1.789063 0.433594,0.644531 0.796875,1.328125 1.09375,2.042969 0.296875,0.714843 0.519531,1.453124 0.671875,2.214843 0.152343,0.761719 0.226562,1.527344 0.226562,2.304688 z m 0,0"
         fill-opacity="1"
         fill-rule="nonzero"
         id="path7" />
    </g>
    <path
       fill="#d9d9d9"
       d="m 104.44159,161.86693 c -5.894533,0 -10.679689,-4.78516 -10.679689,-10.6797 0,-5.89453 4.785156,-10.68359 10.679689,-10.68359 5.89453,0 10.68359,4.78906 10.68359,10.68359 0,5.89454 -4.78906,10.6797 -10.68359,10.6797 z m 0,-21.09766 c -5.753908,0 -10.414064,4.66406 -10.414064,10.41796 0,5.75392 4.679687,10.41407 10.414064,10.41407 5.7539,0 10.41797,-4.67969 10.41797,-10.41407 0,-5.7539 -4.66407,-10.41796 -10.41797,-10.41796 z m 0,0"
       fill-opacity="1"
       fill-rule="nonzero"
       id="path8" />
    <g
       clip-path="url(#d7bd831049)"
       id="g9"
       transform="translate(73.636901,56.081766)">
      <path
         fill="#d9d9d9"
         d="m 120.67578,95.105469 c 0,0.773437 -0.0742,1.542969 -0.22656,2.300781 -0.15234,0.761719 -0.375,1.5 -0.67188,2.214844 -0.29687,0.718746 -0.66015,1.398436 -1.08984,2.042966 -0.43359,0.64453 -0.92187,1.24219 -1.46875,1.78907 -0.55078,0.54687 -1.14453,1.03515 -1.78906,1.46875 -0.64453,0.42968 -1.32813,0.79296 -2.04297,1.08984 -0.71484,0.29687 -1.45313,0.51953 -2.21484,0.67187 -0.76172,0.15235 -1.52735,0.22657 -2.30469,0.22657 -0.77344,0 -1.54297,-0.0742 -2.30078,-0.22657 -0.76172,-0.15234 -1.5,-0.375 -2.21485,-0.67187 -0.71875,-0.29688 -1.39843,-0.66016 -2.04297,-1.08984 -0.64453,-0.4336 -1.24218,-0.92188 -1.78906,-1.46875 -0.546874,-0.54688 -1.039061,-1.14454 -1.468749,-1.78907 -0.429687,-0.64453 -0.792969,-1.32422 -1.089843,-2.042966 C 97.664062,98.90625 97.441406,98.167969 97.289062,97.40625 97.136719,96.648438 97.0625,95.878906 97.0625,95.105469 c 0,-0.777344 0.07422,-1.542969 0.226562,-2.304688 0.152344,-0.761719 0.375,-1.5 0.671876,-2.214843 0.296874,-0.714844 0.660156,-1.398438 1.089843,-2.042969 0.429688,-0.644531 0.921875,-1.238281 1.468749,-1.789063 0.54688,-0.546875 1.14453,-1.035156 1.78906,-1.46875 0.64454,-0.429687 1.32422,-0.792968 2.04297,-1.089844 0.71485,-0.296874 1.45313,-0.519531 2.21485,-0.671874 0.75781,-0.152344 1.52734,-0.226563 2.30078,-0.226563 0.77734,0 1.54297,0.07422 2.30469,0.226563 0.76171,0.152343 1.5,0.375 2.21484,0.671874 0.71484,0.296876 1.39844,0.660157 2.04297,1.089844 0.64453,0.433594 1.23828,0.921875 1.78906,1.46875 0.54688,0.550782 1.03516,1.144532 1.46875,1.789063 0.42969,0.644531 0.79297,1.328125 1.08984,2.042969 0.29688,0.714843 0.51954,1.453124 0.67188,2.214843 0.15234,0.761719 0.22656,1.527344 0.22656,2.304688 z m 0,0"
         fill-opacity="1"
         fill-rule="nonzero"
         id="path9" />
    </g>
    <path
       fill="#d9d9d9"
       d="m 182.50409,161.86693 c -5.89453,0 -10.67969,-4.78516 -10.67969,-10.6797 0,-5.89453 4.78516,-10.68359 10.67969,-10.68359 5.89453,0 10.68359,4.78906 10.68359,10.68359 0,5.89454 -4.78906,10.6797 -10.68359,10.6797 z m 0,-21.09766 c -5.75391,0 -10.41406,4.66406 -10.41406,10.41796 0,5.75392 4.67968,10.41407 10.41406,10.41407 5.7539,0 10.41797,-4.67969 10.41797,-10.41407 0,-5.7539 -4.66407,-10.41796 -10.41797,-10.41796 z m 0,0"
       fill-opacity="1"
       fill-rule="nonzero"
       id="path10" />
    <g
       clip-path="url(#431ce67211)"
       id="g11"
       transform="translate(73.636901,56.081766)">
      <path
         fill="#d9d9d9"
         d="m 191.37109,67.28125 c 0,0.773438 -0.0742,1.542969 -0.22656,2.300781 -0.15234,0.761719 -0.375,1.5 -0.67187,2.214844 -0.29688,0.71875 -0.66016,1.398437 -1.08985,2.042969 -0.43359,0.644531 -0.92187,1.242187 -1.46875,1.789062 -0.55078,0.546875 -1.14453,1.039063 -1.78906,1.46875 -0.64453,0.429688 -1.32422,0.792969 -2.04297,1.089844 -0.71484,0.296875 -1.45312,0.523438 -2.21484,0.671875 -0.75782,0.152344 -1.52735,0.226563 -2.30469,0.226563 -0.77344,0 -1.54297,-0.07422 -2.30078,-0.226563 -0.76172,-0.148437 -1.5,-0.375 -2.21485,-0.671875 -0.71875,-0.296875 -1.39843,-0.660156 -2.04296,-1.089844 -0.64454,-0.429687 -1.23829,-0.921875 -1.78907,-1.46875 -0.54687,-0.546875 -1.03515,-1.144531 -1.46875,-1.789062 -0.42968,-0.644532 -0.79297,-1.324219 -1.08984,-2.042969 -0.29688,-0.714844 -0.51953,-1.453125 -0.67188,-2.214844 -0.15234,-0.757812 -0.22656,-1.527343 -0.22656,-2.300781 0,-0.777344 0.0742,-1.542969 0.22656,-2.304688 0.15235,-0.761718 0.375,-1.5 0.67188,-2.214843 0.29687,-0.714844 0.66016,-1.394531 1.08984,-2.039063 0.4336,-0.644531 0.92188,-1.242187 1.46875,-1.792968 0.55078,-0.546876 1.14453,-1.035157 1.78907,-1.464844 0.64453,-0.433594 1.32421,-0.796875 2.04296,-1.09375 0.71485,-0.296875 1.45313,-0.519532 2.21485,-0.671875 0.75781,-0.148438 1.52734,-0.226563 2.30078,-0.226563 0.77734,0 1.54687,0.07813 2.30469,0.226563 0.76172,0.152343 1.5,0.375 2.21484,0.671875 0.71875,0.296875 1.39844,0.660156 2.04297,1.09375 0.64453,0.429687 1.23828,0.917968 1.78906,1.464844 0.54688,0.550781 1.03516,1.148437 1.46875,1.792968 0.42969,0.644532 0.79297,1.324219 1.08985,2.039063 0.29687,0.714843 0.51953,1.453125 0.67187,2.214843 0.15234,0.761719 0.22656,1.527344 0.22656,2.304688 z m 0,0"
         fill-opacity="1"
         fill-rule="nonzero"
         id="path11" />
    </g>
    <path
       fill="#d9d9d9"
       d="m 253.1994,134.0427 c -5.89453,0 -10.67969,-4.78515 -10.67969,-10.67968 0,-5.89453 4.78516,-10.6836 10.67969,-10.6836 5.89844,0 10.68359,4.78907 10.68359,10.6836 0,5.89453 -4.78515,10.67968 -10.68359,10.67968 z m 0,-21.09765 c -5.75391,0 -10.41406,4.66406 -10.41406,10.41797 0,5.7539 4.67968,10.41796 10.41406,10.41796 5.75391,0 10.41797,-4.68359 10.41797,-10.41796 0,-5.75391 -4.66406,-10.41797 -10.41797,-10.41797 z m 0,0"
       fill-opacity="1"
       fill-rule="nonzero"
       id="path12" />
    <g
       clip-path="url(#2017044023)"
       id="g16"
       transform="translate(73.636901,56.081766)">
      <g
         transform="translate(162,117)"
         id="g15">
        <g
           clip-path="url(#d3ef07db29)"
           id="g14">
          <g
             clip-path="url(#83856316b5)"
             id="g13">
            <path
               fill="#d9d9d9"
               d="m 0.132812,0.695312 h 34.851563 v 13.375 H 0.132812 Z m 0,0"
               fill-opacity="1"
               fill-rule="nonzero"
               id="path13" />
          </g>
        </g>
      </g>
    </g>
    <g
       clip-path="url(#02f576a3b6)"
       id="g17"
       transform="translate(73.636901,56.081766)">
      <path
         fill="#d9d9d9"
         d="m 262.26953,94.558594 c 0,0.777344 -0.0781,1.542968 -0.22656,2.304687 -0.15235,0.761719 -0.375,1.5 -0.67188,2.214844 -0.29687,0.714844 -0.66015,1.398435 -1.09375,2.042965 -0.42968,0.64454 -0.91797,1.23829 -1.46875,1.78907 -0.54687,0.54687 -1.14453,1.03515 -1.78906,1.46875 -0.64453,0.42968 -1.32422,0.79297 -2.03906,1.08984 -0.71875,0.29688 -1.45703,0.51953 -2.21485,0.67188 -0.76171,0.15234 -1.52734,0.22656 -2.30468,0.22656 -0.77344,0 -1.54297,-0.0742 -2.30469,-0.22656 -0.75781,-0.15235 -1.49609,-0.375 -2.21484,-0.67188 -0.71485,-0.29687 -1.39454,-0.66016 -2.03907,-1.08984 -0.64453,-0.4336 -1.24218,-0.92188 -1.78906,-1.46875 -0.55078,-0.55078 -1.03906,-1.14453 -1.46875,-1.78907 -0.42969,-0.64453 -0.79297,-1.328121 -1.08984,-2.042965 -0.29688,-0.714844 -0.52344,-1.453125 -0.67188,-2.214844 -0.15234,-0.761719 -0.22656,-1.527343 -0.22656,-2.304687 0,-0.773438 0.0742,-1.542969 0.22656,-2.300782 0.14844,-0.761718 0.375,-1.5 0.67188,-2.214843 0.29687,-0.71875 0.66015,-1.398438 1.08984,-2.042969 0.42969,-0.644531 0.91797,-1.242188 1.46875,-1.789062 0.54688,-0.546876 1.14453,-1.039063 1.78906,-1.46875 0.64453,-0.429688 1.32422,-0.792969 2.03907,-1.089844 0.71875,-0.296875 1.45703,-0.519532 2.21484,-0.671875 0.76172,-0.152344 1.53125,-0.226563 2.30469,-0.226563 0.77734,0 1.54297,0.07422 2.30468,0.226563 0.75782,0.152343 1.4961,0.375 2.21485,0.671875 0.71484,0.296875 1.39453,0.660156 2.03906,1.089844 0.64453,0.429687 1.24219,0.921874 1.78906,1.46875 0.55078,0.546874 1.03907,1.144531 1.46875,1.789062 0.4336,0.644531 0.79688,1.324219 1.09375,2.042969 0.29688,0.714843 0.51953,1.453125 0.67188,2.214843 0.14844,0.757813 0.22656,1.527344 0.22656,2.300782 z m 0,0"
         fill-opacity="1"
         fill-rule="nonzero"
         id="path16" />
    </g>
    <path
       fill="#d9d9d9"
       d="m 324.09784,161.32396 c -5.89453,0 -10.67969,-4.78906 -10.67969,-10.6836 0,-5.89453 4.78516,-10.67969 10.67969,-10.67969 5.89453,0 10.67968,4.78516 10.67968,10.67969 0,5.89454 -4.78515,10.6836 -10.67968,10.6836 z m 0,-21.09766 c -5.75391,0 -10.41797,4.66015 -10.41797,10.41406 0,5.75391 4.68359,10.41797 10.41797,10.41797 5.7539,0 10.41797,-4.67968 10.41797,-10.41797 0,-5.75391 -4.66407,-10.41406 -10.41797,-10.41406 z m 0,0"
       fill-opacity="1"
       fill-rule="nonzero"
       id="path17" />
  </g>
</svg>
