<?xml version="1.0" encoding="UTF-8" standalone="no"?>
<svg
   width="559"
   zoomAndPan="magnify"
   viewBox="0 0 419.25 297.74999"
   height="397"
   preserveAspectRatio="xMidYMid"
   version="1.0"
   id="svg121"
   xmlns="http://www.w3.org/2000/svg"
   xmlns:svg="http://www.w3.org/2000/svg">
  <defs
     id="defs6">
    <clipPath
       id="d7bd831049">
      <path
         d="M 97.0625,83.296875 H 121 V 107 H 97.0625 Z m 0,0"
         clip-rule="nonzero"
         id="path2" />
    </clipPath>
    <clipPath
       id="431ce67211">
      <path
         d="m 167.75781,55.472656 h 23.94141 v 23.941406 h -23.94141 z m 0,0"
         clip-rule="nonzero"
         id="path3" />
    </clipPath>
    <clipPath
       id="2017044023">
      <path
         d="m 162.13281,117.69531 h 34.86328 v 13.375 h -34.86328 z m 0,0"
         clip-rule="nonzero"
         id="path4" />
    </clipPath>
    <clipPath
       id="83856316b5">
      <path
         d="m 0.132812,0.695312 h 34.863282 v 13.375 H 0.132812 Z m 0,0"
         clip-rule="nonzero"
         id="path5" />
    </clipPath>
    <clipPath
       id="d3ef07db29">
      <rect
         x="0"
         width="35"
         y="0"
         height="15"
         id="rect5" />
    </clipPath>
    <clipPath
       id="02f576a3b6">
      <path
         d="m 238.65625,82.753906 h 23.94141 v 23.941404 h -23.94141 z m 0,0"
         clip-rule="nonzero"
         id="path6" />
    </clipPath>
    <clipPath
       clipPathUnits="userSpaceOnUse"
       id="clipPath121">
      <rect
         x="-1.8503047e-06"
         width="361"
         y="-7.1904333e-07"
         height="190"
         id="rect121"
         style="stroke-width:0.999997" />
    </clipPath>
    <clipPath
       clipPathUnits="userSpaceOnUse"
       id="clipPath122">
      <rect
         x="-1.8503047e-06"
         width="361"
         y="-7.1904333e-07"
         height="190"
         id="rect122"
         style="stroke-width:0.999997" />
    </clipPath>
    <clipPath
       clipPathUnits="userSpaceOnUse"
       id="clipPath123">
      <rect
         x="-1.8503047e-06"
         width="361"
         y="-7.1904333e-07"
         height="190"
         id="rect123"
         style="stroke-width:0.999997" />
    </clipPath>
    <clipPath
       clipPathUnits="userSpaceOnUse"
       id="clipPath124">
      <rect
         x="-1.8503047e-06"
         width="361"
         y="-7.1904333e-07"
         height="190"
         id="rect124"
         style="stroke-width:0.999997" />
    </clipPath>
    <clipPath
       clipPathUnits="userSpaceOnUse"
       id="clipPath125">
      <rect
         x="-1.8503047e-06"
         width="361"
         y="-7.1904333e-07"
         height="190"
         id="rect125"
         style="stroke-width:0.999997" />
    </clipPath>
    <clipPath
       clipPathUnits="userSpaceOnUse"
       id="clipPath126">
      <rect
         x="-1.8503047e-06"
         width="361"
         y="-7.1904333e-07"
         height="190"
         id="rect126"
         style="stroke-width:0.999997" />
    </clipPath>
    <clipPath
       clipPathUnits="userSpaceOnUse"
       id="clipPath127">
      <rect
         x="-1.8503047e-06"
         width="361"
         y="-7.1904333e-07"
         height="190"
         id="rect127"
         style="stroke-width:0.999997" />
    </clipPath>
    <clipPath
       clipPathUnits="userSpaceOnUse"
       id="clipPath128">
      <rect
         x="-1.8503047e-06"
         width="361"
         y="-7.1904333e-07"
         height="190"
         id="rect128"
         style="stroke-width:0.999997" />
    </clipPath>
    <clipPath
       clipPathUnits="userSpaceOnUse"
       id="clipPath129">
      <rect
         x="-1.8503047e-06"
         width="361"
         y="-7.1904333e-07"
         height="190"
         id="rect129"
         style="stroke-width:0.999997" />
    </clipPath>
    <clipPath
       clipPathUnits="userSpaceOnUse"
       id="clipPath130">
      <rect
         x="-1.8503047e-06"
         width="361"
         y="-7.1904333e-07"
         height="190"
         id="rect130"
         style="stroke-width:0.999997" />
    </clipPath>
    <clipPath
       clipPathUnits="userSpaceOnUse"
       id="clipPath140">
      <rect
         x="-1.8503047e-06"
         width="361"
         y="-7.1904333e-07"
         height="190"
         id="rect140"
         style="stroke-width:0.999997" />
    </clipPath>
    <clipPath
       clipPathUnits="userSpaceOnUse"
       id="clipPath141">
      <rect
         x="-1.8503047e-06"
         width="361"
         y="-7.1904333e-07"
         height="190"
         id="rect141"
         style="stroke-width:0.999997" />
    </clipPath>
  </defs>
  <g
     id="g141"
     transform="translate(44.509709)">
    <g
       clip-path="url(#clipPath141)"
       id="g7"
       transform="translate(29.127192,56.081766)">
      <path
         fill="#d9d9d9"
         d="m 42.613281,95.105469 c 0,0.773437 -0.07422,1.542969 -0.226562,2.300781 -0.152344,0.761719 -0.375,1.5 -0.671875,2.214844 -0.296875,0.718746 -0.660156,1.398436 -1.09375,2.042966 -0.429688,0.64453 -0.917969,1.24219 -1.464844,1.78907 -0.550781,0.54687 -1.144531,1.03515 -1.789062,1.46875 -0.644532,0.42968 -1.328126,0.79296 -2.042969,1.08984 -0.714844,0.29687 -1.453125,0.51953 -2.214844,0.67187 -0.761719,0.15235 -1.527344,0.22657 -2.304687,0.22657 -0.773438,0 -1.542969,-0.0742 -2.300782,-0.22657 -0.761718,-0.15234 -1.5,-0.375 -2.214844,-0.67187 -0.71875,-0.29688 -1.398437,-0.66016 -2.042968,-1.08984 -0.644532,-0.4336 -1.242188,-0.92188 -1.789063,-1.46875 -0.546875,-0.54688 -1.039062,-1.14454 -1.46875,-1.78907 -0.429687,-0.64453 -0.792969,-1.32422 -1.089843,-2.042966 C 19.601562,98.90625 19.378906,98.167969 19.226562,97.40625 19.074219,96.648438 19,95.878906 19,95.105469 c 0,-0.777344 0.07422,-1.542969 0.226562,-2.304688 0.152344,-0.761719 0.375,-1.5 0.671876,-2.214843 0.296874,-0.714844 0.660156,-1.398438 1.089843,-2.042969 0.429688,-0.644531 0.921875,-1.238281 1.46875,-1.789063 0.546875,-0.546875 1.144531,-1.035156 1.789063,-1.46875 0.644531,-0.429687 1.324218,-0.792968 2.042968,-1.089844 0.714844,-0.296874 1.453126,-0.519531 2.214844,-0.671874 0.757813,-0.152344 1.527344,-0.226563 2.300782,-0.226563 0.777343,0 1.542968,0.07422 2.304687,0.226563 0.761719,0.152343 1.5,0.375 2.214844,0.671874 0.714843,0.296876 1.398437,0.660157 2.042969,1.089844 0.644531,0.433594 1.238281,0.921875 1.789062,1.46875 0.546875,0.550782 1.035156,1.144532 1.464844,1.789063 0.433594,0.644531 0.796875,1.328125 1.09375,2.042969 0.296875,0.714843 0.519531,1.453124 0.671875,2.214843 0.152343,0.761719 0.226562,1.527344 0.226562,2.304688 z m 0,0"
         fill-opacity="1"
         fill-rule="nonzero"
         id="path7" />
    </g>
    <path
       fill="#d9d9d9"
       d="m 59.93188,161.86693 c -5.894532,0 -10.679688,-4.78516 -10.679688,-10.6797 0,-5.89453 4.785156,-10.68359 10.679688,-10.68359 5.894531,0 10.683593,4.78906 10.683593,10.68359 0,5.89454 -4.789062,10.6797 -10.683593,10.6797 z m 0,-21.09766 c -5.753907,0 -10.414063,4.66406 -10.414063,10.41796 0,5.75392 4.679687,10.41407 10.414063,10.41407 5.753906,0 10.417968,-4.67969 10.417968,-10.41407 0,-5.7539 -4.664062,-10.41796 -10.417968,-10.41796 z m 0,0"
       fill-opacity="1"
       fill-rule="nonzero"
       id="path8" />
    <g
       clip-path="url(#d7bd831049)"
       id="g9"
       transform="translate(29.127192,56.081766)">
      <path
         fill="#d9d9d9"
         d="m 120.67578,95.105469 c 0,0.773437 -0.0742,1.542969 -0.22656,2.300781 -0.15234,0.761719 -0.375,1.5 -0.67188,2.214844 -0.29687,0.718746 -0.66015,1.398436 -1.08984,2.042966 -0.43359,0.64453 -0.92187,1.24219 -1.46875,1.78907 -0.55078,0.54687 -1.14453,1.03515 -1.78906,1.46875 -0.64453,0.42968 -1.32813,0.79296 -2.04297,1.08984 -0.71484,0.29687 -1.45313,0.51953 -2.21484,0.67187 -0.76172,0.15235 -1.52735,0.22657 -2.30469,0.22657 -0.77344,0 -1.54297,-0.0742 -2.30078,-0.22657 -0.76172,-0.15234 -1.5,-0.375 -2.21485,-0.67187 -0.71875,-0.29688 -1.39843,-0.66016 -2.04297,-1.08984 -0.64453,-0.4336 -1.24218,-0.92188 -1.78906,-1.46875 -0.546874,-0.54688 -1.039061,-1.14454 -1.468749,-1.78907 -0.429687,-0.64453 -0.792969,-1.32422 -1.089843,-2.042966 C 97.664062,98.90625 97.441406,98.167969 97.289062,97.40625 97.136719,96.648438 97.0625,95.878906 97.0625,95.105469 c 0,-0.777344 0.07422,-1.542969 0.226562,-2.304688 0.152344,-0.761719 0.375,-1.5 0.671876,-2.214843 0.296874,-0.714844 0.660156,-1.398438 1.089843,-2.042969 0.429688,-0.644531 0.921875,-1.238281 1.468749,-1.789063 0.54688,-0.546875 1.14453,-1.035156 1.78906,-1.46875 0.64454,-0.429687 1.32422,-0.792968 2.04297,-1.089844 0.71485,-0.296874 1.45313,-0.519531 2.21485,-0.671874 0.75781,-0.152344 1.52734,-0.226563 2.30078,-0.226563 0.77734,0 1.54297,0.07422 2.30469,0.226563 0.76171,0.152343 1.5,0.375 2.21484,0.671874 0.71484,0.296876 1.39844,0.660157 2.04297,1.089844 0.64453,0.433594 1.23828,0.921875 1.78906,1.46875 0.54688,0.550782 1.03516,1.144532 1.46875,1.789063 0.42969,0.644531 0.79297,1.328125 1.08984,2.042969 0.29688,0.714843 0.51954,1.453124 0.67188,2.214843 0.15234,0.761719 0.22656,1.527344 0.22656,2.304688 z m 0,0"
         fill-opacity="1"
         fill-rule="nonzero"
         id="path9" />
    </g>
    <path
       fill="#d9d9d9"
       d="m 137.99438,161.86693 c -5.89453,0 -10.67969,-4.78516 -10.67969,-10.6797 0,-5.89453 4.78516,-10.68359 10.67969,-10.68359 5.89453,0 10.68359,4.78906 10.68359,10.68359 0,5.89454 -4.78906,10.6797 -10.68359,10.6797 z m 0,-21.09766 c -5.75391,0 -10.41406,4.66406 -10.41406,10.41796 0,5.75392 4.67968,10.41407 10.41406,10.41407 5.7539,0 10.41797,-4.67969 10.41797,-10.41407 0,-5.7539 -4.66407,-10.41796 -10.41797,-10.41796 z m 0,0"
       fill-opacity="1"
       fill-rule="nonzero"
       id="path10" />
    <g
       clip-path="url(#431ce67211)"
       id="g11"
       transform="translate(29.127192,56.081766)">
      <path
         fill="#d9d9d9"
         d="m 191.37109,67.28125 c 0,0.773438 -0.0742,1.542969 -0.22656,2.300781 -0.15234,0.761719 -0.375,1.5 -0.67187,2.214844 -0.29688,0.71875 -0.66016,1.398437 -1.08985,2.042969 -0.43359,0.644531 -0.92187,1.242187 -1.46875,1.789062 -0.55078,0.546875 -1.14453,1.039063 -1.78906,1.46875 -0.64453,0.429688 -1.32422,0.792969 -2.04297,1.089844 -0.71484,0.296875 -1.45312,0.523438 -2.21484,0.671875 -0.75782,0.152344 -1.52735,0.226563 -2.30469,0.226563 -0.77344,0 -1.54297,-0.07422 -2.30078,-0.226563 -0.76172,-0.148437 -1.5,-0.375 -2.21485,-0.671875 -0.71875,-0.296875 -1.39843,-0.660156 -2.04296,-1.089844 -0.64454,-0.429687 -1.23829,-0.921875 -1.78907,-1.46875 -0.54687,-0.546875 -1.03515,-1.144531 -1.46875,-1.789062 -0.42968,-0.644532 -0.79297,-1.324219 -1.08984,-2.042969 -0.29688,-0.714844 -0.51953,-1.453125 -0.67188,-2.214844 -0.15234,-0.757812 -0.22656,-1.527343 -0.22656,-2.300781 0,-0.777344 0.0742,-1.542969 0.22656,-2.304688 0.15235,-0.761718 0.375,-1.5 0.67188,-2.214843 0.29687,-0.714844 0.66016,-1.394531 1.08984,-2.039063 0.4336,-0.644531 0.92188,-1.242187 1.46875,-1.792968 0.55078,-0.546876 1.14453,-1.035157 1.78907,-1.464844 0.64453,-0.433594 1.32421,-0.796875 2.04296,-1.09375 0.71485,-0.296875 1.45313,-0.519532 2.21485,-0.671875 0.75781,-0.148438 1.52734,-0.226563 2.30078,-0.226563 0.77734,0 1.54687,0.07813 2.30469,0.226563 0.76172,0.152343 1.5,0.375 2.21484,0.671875 0.71875,0.296875 1.39844,0.660156 2.04297,1.09375 0.64453,0.429687 1.23828,0.917968 1.78906,1.464844 0.54688,0.550781 1.03516,1.148437 1.46875,1.792968 0.42969,0.644532 0.79297,1.324219 1.08985,2.039063 0.29687,0.714843 0.51953,1.453125 0.67187,2.214843 0.15234,0.761719 0.22656,1.527344 0.22656,2.304688 z m 0,0"
         fill-opacity="1"
         fill-rule="nonzero"
         id="path11" />
    </g>
    <path
       fill="#d9d9d9"
       d="m 208.68969,134.0427 c -5.89453,0 -10.67969,-4.78515 -10.67969,-10.67968 0,-5.89453 4.78516,-10.6836 10.67969,-10.6836 5.89844,0 10.68359,4.78907 10.68359,10.6836 0,5.89453 -4.78515,10.67968 -10.68359,10.67968 z m 0,-21.09765 c -5.75391,0 -10.41406,4.66406 -10.41406,10.41797 0,5.7539 4.67968,10.41796 10.41406,10.41796 5.75391,0 10.41797,-4.68359 10.41797,-10.41796 0,-5.75391 -4.66406,-10.41797 -10.41797,-10.41797 z m 0,0"
       fill-opacity="1"
       fill-rule="nonzero"
       id="path12" />
    <g
       clip-path="url(#2017044023)"
       id="g16"
       transform="translate(29.127192,56.081766)">
      <g
         transform="translate(162,117)"
         id="g15">
        <g
           clip-path="url(#d3ef07db29)"
           id="g14">
          <g
             clip-path="url(#83856316b5)"
             id="g13">
            <path
               fill="#d9d9d9"
               d="m 0.132812,0.695312 h 34.851563 v 13.375 H 0.132812 Z m 0,0"
               fill-opacity="1"
               fill-rule="nonzero"
               id="path13" />
          </g>
        </g>
      </g>
    </g>
    <g
       clip-path="url(#02f576a3b6)"
       id="g17"
       transform="translate(29.127192,56.081766)">
      <path
         fill="#d9d9d9"
         d="m 262.26953,94.558594 c 0,0.777344 -0.0781,1.542968 -0.22656,2.304687 -0.15235,0.761719 -0.375,1.5 -0.67188,2.214844 -0.29687,0.714844 -0.66015,1.398435 -1.09375,2.042965 -0.42968,0.64454 -0.91797,1.23829 -1.46875,1.78907 -0.54687,0.54687 -1.14453,1.03515 -1.78906,1.46875 -0.64453,0.42968 -1.32422,0.79297 -2.03906,1.08984 -0.71875,0.29688 -1.45703,0.51953 -2.21485,0.67188 -0.76171,0.15234 -1.52734,0.22656 -2.30468,0.22656 -0.77344,0 -1.54297,-0.0742 -2.30469,-0.22656 -0.75781,-0.15235 -1.49609,-0.375 -2.21484,-0.67188 -0.71485,-0.29687 -1.39454,-0.66016 -2.03907,-1.08984 -0.64453,-0.4336 -1.24218,-0.92188 -1.78906,-1.46875 -0.55078,-0.55078 -1.03906,-1.14453 -1.46875,-1.78907 -0.42969,-0.64453 -0.79297,-1.328121 -1.08984,-2.042965 -0.29688,-0.714844 -0.52344,-1.453125 -0.67188,-2.214844 -0.15234,-0.761719 -0.22656,-1.527343 -0.22656,-2.304687 0,-0.773438 0.0742,-1.542969 0.22656,-2.300782 0.14844,-0.761718 0.375,-1.5 0.67188,-2.214843 0.29687,-0.71875 0.66015,-1.398438 1.08984,-2.042969 0.42969,-0.644531 0.91797,-1.242188 1.46875,-1.789062 0.54688,-0.546876 1.14453,-1.039063 1.78906,-1.46875 0.64453,-0.429688 1.32422,-0.792969 2.03907,-1.089844 0.71875,-0.296875 1.45703,-0.519532 2.21484,-0.671875 0.76172,-0.152344 1.53125,-0.226563 2.30469,-0.226563 0.77734,0 1.54297,0.07422 2.30468,0.226563 0.75782,0.152343 1.4961,0.375 2.21485,0.671875 0.71484,0.296875 1.39453,0.660156 2.03906,1.089844 0.64453,0.429687 1.24219,0.921874 1.78906,1.46875 0.55078,0.546874 1.03907,1.144531 1.46875,1.789062 0.4336,0.644531 0.79688,1.324219 1.09375,2.042969 0.29688,0.714843 0.51953,1.453125 0.67188,2.214843 0.14844,0.757813 0.22656,1.527344 0.22656,2.300782 z m 0,0"
         fill-opacity="1"
         fill-rule="nonzero"
         id="path16" />
    </g>
    <path
       fill="#d9d9d9"
       d="m 279.58813,161.32396 c -5.89453,0 -10.67969,-4.78906 -10.67969,-10.6836 0,-5.89453 4.78516,-10.67969 10.67969,-10.67969 5.89453,0 10.67968,4.78516 10.67968,10.67969 0,5.89454 -4.78515,10.6836 -10.67968,10.6836 z m 0,-21.09766 c -5.75391,0 -10.41797,4.66015 -10.41797,10.41406 0,5.75391 4.68359,10.41797 10.41797,10.41797 5.7539,0 10.41797,-4.67968 10.41797,-10.41797 0,-5.75391 -4.66407,-10.41406 -10.41797,-10.41406 z m 0,0"
       fill-opacity="1"
       fill-rule="nonzero"
       id="path17" />
    <g
       fill="#000000"
       fill-opacity="1"
       id="g20"
       transform="translate(29.127192,56.081766)"
       clip-path="url(#clipPath140)">
      <g
         transform="translate(18.053864,155.1433)"
         id="g19">
        <g
           id="g18">
          <path
             d="M 2.375,-23.734375 H 13.90625 V -22.375 H 3.734375 v 8.46875 h 6.78125 v 1.359375 H 3.734375 V 0 H 2.375 Z m 0,0"
             id="path18" />
        </g>
      </g>
    </g>
    <g
       fill="#000000"
       fill-opacity="1"
       id="g23"
       transform="translate(29.127192,56.081766)">
      <g
         transform="translate(37.446548,155.1433)"
         id="g22">
        <g
           id="g21">
          <path
             d="M 2.375,-23.734375 H 3.734375 V 0 H 2.375 Z m 0,0"
             id="path20" />
        </g>
      </g>
    </g>
    <g
       fill="#000000"
       fill-opacity="1"
       id="g74"
       transform="translate(29.127192,56.081766)">
      <g
         transform="translate(96.116822,155.1433)"
         id="g73">
        <g
           id="g72">
          <path
             d="m 2.375,-23.734375 h 1.359375 v 22.375 H 13.90625 V 0 H 2.375 Z m 0,0"
             id="path71" />
        </g>
      </g>
    </g>
    <g
       fill="#000000"
       fill-opacity="1"
       id="g77"
       transform="translate(29.127192,56.081766)">
      <g
         transform="translate(115.50951,155.1433)"
         id="g76">
        <g
           id="g75">
          <path
             d="M 2.375,-23.734375 H 3.734375 V 0 H 2.375 Z m 0,0"
             id="path74" />
        </g>
      </g>
    </g>
    <g
       fill="#000000"
       fill-opacity="1"
       id="g80"
       transform="translate(29.127192,56.081766)">
      <g
         transform="translate(165.79299,179.21234)"
         id="g79">
        <g
           id="g78">
          <path
             d="M 3.734375,-22.375 V 0 H 2.375 V -23.734375 H 10 c 0.769531,0 1.492188,0.148437 2.171875,0.4375 0.675781,0.292969 1.269531,0.695313 1.78125,1.203125 0.507813,0.511719 0.910156,1.105469 1.203125,1.78125 0.289062,0.679688 0.4375,1.460938 0.4375,2.34375 0,0.65625 -0.148438,1.324219 -0.4375,2 -0.292969,0.679688 -0.695312,1.273438 -1.203125,1.78125 -0.511719,0.511719 -1.105469,0.914062 -1.78125,1.203125 -0.679687,0.292969 -1.402344,0.4375 -2.171875,0.4375 H 5.078125 V -13.90625 H 10 c 0.59375,0 1.140625,-0.109375 1.640625,-0.328125 0.507813,-0.226563 0.957031,-0.535156 1.34375,-0.921875 0.382813,-0.382812 0.6875,-0.832031 0.90625,-1.34375 0.226563,-0.507812 0.34375,-1 0.34375,-1.46875 0,-0.695312 -0.117187,-1.300781 -0.34375,-1.8125 -0.21875,-0.507812 -0.523437,-0.957031 -0.90625,-1.34375 -0.386719,-0.382812 -0.835937,-0.6875 -1.34375,-0.90625 C 11.140625,-22.257812 10.59375,-22.375 10,-22.375 Z m 0,0"
             id="path77" />
        </g>
      </g>
    </g>
    <g
       fill="#d9d9d9"
       fill-opacity="1"
       id="g83"
       transform="translate(29.127192,56.081766)">
      <g
         transform="translate(187.22091,179.21234)"
         id="g82">
        <g
           id="g81">
          <path
             d="M 2.375,-23.734375 H 3.734375 V 0 H 2.375 Z m 0.265625,-1.6875 1.265625,-3.265625 h 1.484375 l -1.65625,3.265625 z m 0,0"
             id="path80" />
        </g>
      </g>
    </g>
    <g
       fill="#d9d9d9"
       fill-opacity="1"
       id="g86"
       transform="translate(29.127192,56.081766)">
      <g
         transform="translate(231.57446,154.3138)"
         id="g85">
        <g
           id="g84">
          <path
             d="M 3.734375,-21.46875 V 0 H 2.375 v -23.734375 h 1.890625 l 9.640625,21.46875 v -21.46875 H 15.25 V 0 h -1.828125 z m 0,0"
             id="path83" />
        </g>
      </g>
    </g>
    <g
       fill="#d9d9d9"
       fill-opacity="1"
       id="g89"
       transform="translate(29.127192,56.081766)">
      <g
         transform="translate(254.01825,154.3138)"
         id="g88">
        <g
           id="g87">
          <path
             d="M 7.65625,-11.65625 V 0 H 6.3125 V -11.65625 L 0.84375,-23.734375 h 1.5625 L 6.984375,-13.5625 11.5625,-23.734375 h 1.484375 z m 0,0"
             id="path86" />
        </g>
      </g>
    </g>
    <g
       fill="#000000"
       fill-opacity="1"
       id="g92"
       transform="translate(29.127192,56.081766)"
       clip-path="url(#clipPath130)">
      <g
         transform="translate(1.098567,55.007039)"
         id="g91">
        <g
           id="g90">
          <path
             d="m 2.375,-23.734375 h 1.359375 v 9.828125 h 11.1875 v -9.828125 H 16.28125 V 0 H 14.921875 V -12.546875 H 3.734375 V 0 H 2.375 Z m 0,0"
             id="path89" />
        </g>
      </g>
    </g>
    <g
       fill="#d9d9d9"
       fill-opacity="1"
       id="g95"
       transform="translate(29.127192,56.081766)"
       clip-path="url(#clipPath129)">
      <g
         transform="translate(24.560565,55.007039)"
         id="g94">
        <g
           id="g93">
          <path
             d="M 5.078125,-13.90625 H 10 c 0.59375,0 1.140625,-0.109375 1.640625,-0.328125 0.507813,-0.226563 0.957031,-0.535156 1.34375,-0.921875 0.382813,-0.382812 0.6875,-0.832031 0.90625,-1.34375 0.226563,-0.507812 0.34375,-1 0.34375,-1.46875 0,-0.695312 -0.117187,-1.300781 -0.34375,-1.8125 -0.21875,-0.507812 -0.523437,-0.957031 -0.90625,-1.34375 -0.386719,-0.382812 -0.835937,-0.6875 -1.34375,-0.90625 C 11.140625,-22.257812 10.59375,-22.375 10,-22.375 H 3.734375 V 0 H 2.375 V -23.734375 H 10 c 0.769531,0 1.492188,0.148437 2.171875,0.4375 0.675781,0.292969 1.269531,0.695313 1.78125,1.203125 0.507813,0.511719 0.910156,1.105469 1.203125,1.78125 0.289062,0.679688 0.4375,1.460938 0.4375,2.34375 0,0.65625 -0.148438,1.324219 -0.4375,2 -0.292969,0.679688 -0.695312,1.273438 -1.203125,1.78125 -0.511719,0.511719 -1.105469,0.914062 -1.78125,1.203125 -0.679687,0.292969 -1.402344,0.4375 -2.171875,0.4375 H 6.75 L 15.796875,0 h -1.65625 l -9.0625,-12.546875 z m 0,0"
             id="path92" />
        </g>
      </g>
    </g>
    <g
       fill="#000000"
       fill-opacity="1"
       id="g98"
       transform="translate(29.127192,56.081766)"
       clip-path="url(#clipPath128)">
      <g
         transform="translate(45.181872,55.007039)"
         id="g97">
        <g
           id="g96">
          <path
             d="M 14.484375,0 H 13.125 L 10.953125,-8.8125 H 4.375 L 2.203125,0 H 0.84375 L 6.640625,-23.734375 H 8.6875 Z M 4.71875,-10.171875 h 5.890625 L 7.65625,-22.28125 Z m 0,0"
             id="path95" />
        </g>
      </g>
    </g>
    <g
       fill="#d9d9d9"
       fill-opacity="1"
       id="g101"
       transform="translate(29.127192,56.081766)"
       clip-path="url(#clipPath127)">
      <g
         transform="translate(80.199259,55.007039)"
         id="g100">
        <g
           id="g99">
          <path
             d="m 3.5625,-6.953125 c 0,0.886719 0.144531,1.667969 0.4375,2.34375 0.289062,0.679687 0.691406,1.273437 1.203125,1.78125 0.507813,0.511719 1.101563,0.914063 1.78125,1.203125 0.675781,0.292969 1.398437,0.4375 2.171875,0.4375 0.769531,0 1.492188,-0.144531 2.171875,-0.4375 0.675781,-0.289062 1.1875,-0.617188 1.53125,-0.984375 0.351563,-0.363281 0.625,-0.660156 0.8125,-0.890625 l 1.140625,0.71875 c -0.21875,0.3125 -0.558594,0.703125 -1.015625,1.171875 C 13.347656,-1.148438 12.695312,-0.738281 11.84375,-0.375 11,-0.0078125 10.101562,0.171875 9.15625,0.171875 c -0.949219,0 -1.851562,-0.1796875 -2.703125,-0.546875 -0.84375,-0.363281 -1.585937,-0.859375 -2.21875,-1.484375 -0.636719,-0.632813 -1.136719,-1.375 -1.5,-2.21875 -0.355469,-0.851563 -0.53125,-1.8125 -0.53125,-2.875 v -9.828125 c 0,-1.0625 0.175781,-2.015625 0.53125,-2.859375 0.363281,-0.851563 0.863281,-1.59375 1.5,-2.21875 0.632813,-0.632813 1.375,-1.132813 2.21875,-1.5 0.851563,-0.363281 1.753906,-0.546875 2.703125,-0.546875 0.945312,0 1.84375,0.183594 2.6875,0.546875 0.851562,0.367187 1.503906,0.78125 1.953125,1.25 0.457031,0.460937 0.796875,0.84375 1.015625,1.15625 l -1.140625,0.71875 c -0.1875,-0.226563 -0.460937,-0.523437 -0.8125,-0.890625 -0.34375,-0.363281 -0.855469,-0.691406 -1.53125,-0.984375 -0.679687,-0.289063 -1.402344,-0.4375 -2.171875,-0.4375 -0.773438,0 -1.496094,0.148437 -2.171875,0.4375 -0.679687,0.292969 -1.273437,0.695313 -1.78125,1.203125 C 4.691406,-20.394531 4.289062,-19.800781 4,-19.125 c -0.292969,0.679688 -0.4375,1.460938 -0.4375,2.34375 z m 0,0"
             id="path98" />
        </g>
      </g>
    </g>
    <g
       fill="#d9d9d9"
       fill-opacity="1"
       id="g104"
       transform="translate(29.127192,56.081766)"
       clip-path="url(#clipPath126)">
      <g
         transform="translate(98.472515,55.007039)"
         id="g103">
        <g
           id="g102">
          <path
             d="m 2.375,-23.734375 h 1.359375 v 9.828125 h 11.1875 v -9.828125 H 16.28125 V 0 H 14.921875 V -12.546875 H 3.734375 V 0 H 2.375 Z m 0,0"
             id="path101" />
        </g>
      </g>
    </g>
    <g
       fill="#d9d9d9"
       fill-opacity="1"
       id="g107"
       transform="translate(29.127192,56.081766)"
       clip-path="url(#clipPath125)">
      <g
         transform="translate(119.22056,55.007039)"
         id="g106">
        <g
           id="g105">
          <path
             d="m 2.203125,-16.78125 c 0,-1.019531 0.175781,-1.960938 0.53125,-2.828125 0.363281,-0.875 0.863281,-1.625 1.5,-2.25 0.632813,-0.632813 1.375,-1.132813 2.21875,-1.5 0.851563,-0.363281 1.753906,-0.546875 2.703125,-0.546875 0.945312,0 1.84375,0.183594 2.6875,0.546875 0.851562,0.367187 1.59375,0.867187 2.21875,1.5 0.632812,0.625 1.132812,1.375 1.5,2.25 0.363281,0.867187 0.546875,1.808594 0.546875,2.828125 v 9.828125 c 0,1.023437 -0.183594,1.96875 -0.546875,2.84375 -0.367188,0.867187 -0.867188,1.617187 -1.5,2.25 -0.625,0.625 -1.367188,1.121094 -2.21875,1.484375 C 11,-0.0078125 10.101562,0.171875 9.15625,0.171875 c -0.949219,0 -1.851562,-0.1796875 -2.703125,-0.546875 -0.84375,-0.363281 -1.585937,-0.859375 -2.21875,-1.484375 -0.636719,-0.632813 -1.136719,-1.382813 -1.5,-2.25 -0.355469,-0.875 -0.53125,-1.820313 -0.53125,-2.84375 z m 12.546875,0 c 0,-0.832031 -0.148438,-1.601562 -0.4375,-2.3125 -0.292969,-0.71875 -0.695312,-1.332031 -1.203125,-1.84375 -0.511719,-0.507812 -1.105469,-0.90625 -1.78125,-1.1875 -0.679687,-0.28125 -1.402344,-0.421875 -2.171875,-0.421875 -0.773438,0 -1.496094,0.140625 -2.171875,0.421875 -0.679687,0.28125 -1.273437,0.679688 -1.78125,1.1875 -0.511719,0.511719 -0.914063,1.125 -1.203125,1.84375 -0.292969,0.710938 -0.4375,1.480469 -0.4375,2.3125 v 9.828125 c 0,0.835937 0.144531,1.609375 0.4375,2.328125 0.289062,0.710938 0.691406,1.320312 1.203125,1.828125 0.507813,0.511719 1.101563,0.90625 1.78125,1.1875 0.675781,0.28125 1.398437,0.421875 2.171875,0.421875 0.769531,0 1.492188,-0.140625 2.171875,-0.421875 0.675781,-0.28125 1.269531,-0.675781 1.78125,-1.1875 C 13.617188,-3.304688 14.019531,-3.914062 14.3125,-4.625 14.601562,-5.34375 14.75,-6.117188 14.75,-6.953125 Z m 0,0"
             id="path104" />
        </g>
      </g>
    </g>
    <g
       fill="#d9d9d9"
       fill-opacity="1"
       id="g110"
       transform="translate(29.127192,56.081766)"
       clip-path="url(#clipPath124)">
      <g
         transform="translate(166.4383,30.108502)"
         id="g109">
        <g
           id="g108">
          <path
             d="M 6.640625,0 0.84375,-23.734375 h 1.359375 l 5.453125,22.28125 5.46875,-22.28125 h 1.359375 L 8.6875,0 Z m 0,0"
             id="path107" />
        </g>
      </g>
    </g>
    <g
       fill="#d9d9d9"
       fill-opacity="1"
       id="g113"
       transform="translate(29.127192,56.081766)"
       clip-path="url(#clipPath123)">
      <g
         transform="translate(186.57681,30.108502)"
         id="g112">
        <g
           id="g111">
          <path
             d="M 2.375,-23.734375 H 3.734375 V 0 H 2.375 Z m 0,0"
             id="path110" />
        </g>
      </g>
    </g>
    <g
       fill="#000000"
       fill-opacity="1"
       id="g116"
       transform="translate(29.127192,56.081766)"
       clip-path="url(#clipPath122)">
      <g
         transform="translate(231.57446,55.007039)"
         id="g115">
        <g
           id="g114">
          <path
             d="M 3.734375,-21.46875 V 0 H 2.375 v -23.734375 h 1.890625 l 9.640625,21.46875 v -21.46875 H 15.25 V 0 h -1.828125 z m 0,0"
             id="path113" />
        </g>
      </g>
    </g>
    <g
       fill="#000000"
       fill-opacity="1"
       id="g119"
       transform="translate(29.127192,56.081766)"
       clip-path="url(#clipPath121)">
      <g
         transform="translate(254.01825,55.007039)"
         id="g118">
        <g
           id="g117">
          <path
             d="M 14.484375,0 H 13.125 L 10.953125,-8.8125 H 4.375 L 2.203125,0 H 0.84375 L 6.640625,-23.734375 H 8.6875 Z M 4.71875,-10.171875 h 5.890625 L 7.65625,-22.28125 Z m 0,0"
             id="path116" />
        </g>
      </g>
    </g>
  </g>
</svg>
